<svg id="Capa_1" data-name="Capa 1" xmlns="http://www.w3.org/2000/svg" viewBox="0 0 1049.86 714.01"><title>elephant</title><path d="M1073.84,232.24a2.08,2.08,0,0,0-.12-.32v-.37s0,0-.07-.12l.07.12a.29.29,0,0,0,0-.31c0-.5.13-1-.29-1.45a5.41,5.41,0,0,0-.34-2.11.81.81,0,0,0,0-.71,6.88,6.88,0,0,0-.6-2.27l-.16-.56a12.76,12.76,0,0,0-.91-3,.29.29,0,0,0-.07-.25c0-.82-.69-1.28-1-1.91l-1.1-1.67a1.93,1.93,0,0,0-.68-1.1,2.2,2.2,0,0,0-.66-1.4.89.89,0,0,0-.34-.69l-.12-.34a.76.76,0,0,0-.34-.7l-.13-.37a.31.31,0,0,0-.21-.35,13.89,13.89,0,0,0-1.43-2.48,1,1,0,0,0-.44-.69c-.07-.15-.15-.29-.23-.43a.29.29,0,0,0-.09-.28l-.08-.37a.35.35,0,0,0-.22-.37l-2.14-4.6a3.91,3.91,0,0,0-.71-2.14c-.12-1.18-.25-2.36-.38-3.54s0-2.45-.08-3.67l-.09-4.68-.07-.46a6.76,6.76,0,0,0,.27-3.62c-.53-1.52.12-3,0-4.56a3,3,0,0,0,.13-2.23,6.12,6.12,0,0,1,.29-3.79,2.18,2.18,0,0,0-.16-1.84c0-1.8.25-3.63-.62-5.33l-.11,0,.11,0c0-.71.46-1.42,0-2.13a7.77,7.77,0,0,1-.36-3,.5.5,0,0,0-.36-.52,5.23,5.23,0,0,1-.68-2.52,2.85,2.85,0,0,0-1.1-2.1l-1-1.46a.36.36,0,0,0,0-.29c.33-.25.28-.64.36-1a1.84,1.84,0,0,0-.09-1.87c0-.19,0-.32-.21-.36-.12-.56-.16-1.18-.81-1.45a3.32,3.32,0,0,0-1.29-1.46l-.55-.61c-.36-.79-1.07-1.37-1.32-2.22a2.73,2.73,0,0,0-.44-1.34,1.85,1.85,0,0,0-.6-1.16.3.3,0,0,0-.16-.27,4.73,4.73,0,0,0-.93-1.49,4.37,4.37,0,0,0-1.09-1.36.44.44,0,0,0-.33-.42l-.74-1c-.18-.49-.16-1.09-.72-1.38a.67.67,0,0,0-.59-.39c-.11-.36-.12-.77-.5-1l0-.07a.38.38,0,0,0-.28-.42,1.83,1.83,0,0,0-.75-1,1.94,1.94,0,0,0-.74-1.05l-1.47-2.38a.27.27,0,0,0-.26-.18c0-.58-.59-.59-.82-.94,0-.21-.11-.32-.33-.3l0,0a.28.28,0,0,0-.3-.28c-.49-.37-.84-.93-1.45-1.16L1040,128l-.41-.41c0-.16-.1-.25-.27-.24a.24.24,0,0,0-.28-.18.84.84,0,0,0-.8-.3l-1-.41a.81.81,0,0,0-.37-.66.78.78,0,0,0-.67-.77,9.27,9.27,0,0,0-3-2,.32.32,0,0,0-.27-.13c-.45-.3-.9-.61-1.48-.32-1.11-.07-1-1.3-1.74-1.78a1.7,1.7,0,0,0-.75-.68l-3.15-1.48c-.54-.48-1.2-.23-1.8-.32l-1.11-.67a2.32,2.32,0,0,0-2.09-1.09,6,6,0,0,0-3.21-2.06l-1.29-.19-.45-.25c-1.89-1.85-4.36-2.6-6.71-3.59-.78-.38-1.78-.4-2.18-1.38.26-1.7-1-2.91-1.44-4.4-.1-.37-.67-.63-1.07-.89s-.92-.5-1.39-.74a4.17,4.17,0,0,0-.71-2.83.37.37,0,0,0-.33-.39l-.13.12.13-.12a1,1,0,0,0-.68-.76L1000,98a.19.19,0,0,0-.06-.24s0,0,0,0l0,0a5,5,0,0,0-1.25-3.25c-.25-.82-.47-1.67-1.56-1.75a.5.5,0,0,0-.42-.32l-.31-.37a.73.73,0,0,0-.31-.72c-.13-1-.1-2.14-1.14-2.81a.79.79,0,0,0-.64-.48c-.58-.36-.93-1.16-1.82-1-.49-.39-1.1-.58-1.48-1.17a3.37,3.37,0,0,0-2-1.34.42.42,0,0,0-.38-.37c-.18-1.5-1.48-1.83-2.53-2.43-.21-.19-.42-.52-.65-.53a2.75,2.75,0,0,1-2.24-1.65.85.85,0,0,0-.55-.37.79.79,0,0,0-.84-.26,1.78,1.78,0,0,1-1.2-1.53.87.87,0,0,0-.51-.65c0-.24-.06-.49-.3-.6a7.2,7.2,0,0,0-4-1.15l-.69-.79a.51.51,0,0,0-.4-.58l0,0a.29.29,0,0,0-.33-.3l-.05,0c-.8-1.54-2.38-1.71-3.78-2.18a1.55,1.55,0,0,0-.72-.81,1,1,0,0,0-.75-.61,1.48,1.48,0,0,0-1-.73.7.7,0,0,0-.66-.38,13,13,0,0,1-2.23-1,4.27,4.27,0,0,0-1.68-1.16,1.49,1.49,0,0,0-1.89,0,2.43,2.43,0,0,1-1.64-.07l-.51-.94a2.32,2.32,0,0,0-1.67-1.83.77.77,0,0,0-.75-.31.2.2,0,0,0-.25-.08,1.11,1.11,0,0,0-1.18-.31.24.24,0,0,0-.28,0c-.56-.45-1.25-.1-1.85-.27-.51-.57-1.18-.21-1.77-.31l-2.12-.8c-.1-.34-.24-.64-.63-.73l-.83-.65a5,5,0,0,0-2.73-1.18,7.58,7.58,0,0,0-2.57-.63.72.72,0,0,0-.68-.36l-1.8-1c-.11-.31-.38-.38-.67-.41,0-.22-.1-.33-.32-.33a9.36,9.36,0,0,0-2.17-1.08c-.14-.3-.29-.28-.44,0-.73.25-1.38-.23-2.09-.25a.3.3,0,0,0-.28-.09,1.46,1.46,0,0,0-.82-.66l-1.28-.75A2.84,2.84,0,0,0,930,53c-.24-.12-.48-.24-.73,0l-.7-.27a11.05,11.05,0,0,0-2.46-1.84c-.37-.47-.74-.34-1.12,0l-.67.11c-.91-.09-1.94.22-2.58-.77A2.51,2.51,0,0,0,920.08,49a1.64,1.64,0,0,0-1.44-.32,9.66,9.66,0,0,1-2.45-.35,4,4,0,0,0-1.78-1.44.74.74,0,0,0-.74-.22l-.38-.06-.66-.1c-1-.49-2.29-.16-3.24-.92-1.71-1.18-3.49-2.14-5.67-1.88l-.63-.37a.36.36,0,0,0-.45-.26.52.52,0,0,0-.32-.07c-.58-.3-1.1-.83-1.84-.43a3.78,3.78,0,0,0-2.37-.16l-2.21.33a.47.47,0,0,0-.29-.14c-.43-.47-1-.28-1.49-.27L892.7,42l-.36,0a1.1,1.1,0,0,0-1.06-.28h-.7c-.31-.07-.47.21-.7.32h-.74a.26.26,0,0,0-.29-.05c-.91-.6-1.94-.25-2.91-.34a.22.22,0,0,0-.32,0l-.74.09c-.3-.07-.58-.08-.76.23-.38,0-.76,0-1,.41l-1.78,0-1.08.09v0l-2.1-.09a1.67,1.67,0,0,0-1.08,0c-.38,0-.79-.07-1.1.28l-2.07,0a.77.77,0,0,0-.46-.13,2.53,2.53,0,0,0-2.21.1,2,2,0,0,0-2,.79l-.37.34-1,.06a13.62,13.62,0,0,0-5,.22.4.4,0,0,0-.31.11,7.56,7.56,0,0,1-3.53.72,4.91,4.91,0,0,0-2.91.25.37.37,0,0,0-.28.11,3.88,3.88,0,0,1-1.77.36,1.89,1.89,0,0,0-1.08,0l-1.09,0-.69,0a.56.56,0,0,0-.66.33,2.31,2.31,0,0,1-1.11.33l-.36,0a1.62,1.62,0,0,0-1.39.13c-.48,0-.95-.25-1.44-.09a4,4,0,0,0-2.85.69L843,47a.32.32,0,0,0-.41.2c-.46.2-1-.07-1.44.38l-.67-.23a.32.32,0,0,0-.3,0h-.42a3.41,3.41,0,0,0-2.18.22,1.66,1.66,0,0,1-1.25.35l0,0a5.08,5.08,0,0,0-3.62.07,1.87,1.87,0,0,0-1.49.67,16.51,16.51,0,0,0-3-1.06,2.7,2.7,0,0,0-2.62-.87,14.1,14.1,0,0,1-1.72.16c-.28-.38-.74-.45-1.13-.64a1.41,1.41,0,0,0-1-.67c-1.57-.08-3.09-.64-4.68-.4-1.14-.51-2.36-.23-3.54-.35a.85.85,0,0,0-.73,0c-2.11,0-4.22,0-6.33,0-.86,0-1.77-.29-2.57.28l-3.87.06a17.38,17.38,0,0,0-4.26-.38h-.35l-.62-.07c-.67-.52-1.48-.22-2.22-.33A23.14,23.14,0,0,1,785.83,42a30.18,30.18,0,0,0-6.6-3.24.84.84,0,0,0-.84-.28l-.33-.1a1.18,1.18,0,0,0-1.08-.31A25.39,25.39,0,0,0,772,37l-5.37-1.37a1.38,1.38,0,0,0-1-.37.83.83,0,0,0-.73-.28,4.69,4.69,0,0,0-1.68-.47h0c-.06-.21-.21-.23-.39-.2l-.33-.12-2.51-1.41a4,4,0,0,0-1.41-.71l-.37-.33-.12.13,0,0h0l.12-.11a.41.41,0,0,0-.4-.29l0,0a1.49,1.49,0,0,0-.67-.73.32.32,0,0,0-.33-.36,5.78,5.78,0,0,0-2.41-1.47.69.69,0,0,0-.79-.32,2.89,2.89,0,0,0-1.73-.77c-1.52-.67-2.91-1.65-4.63-1.78a19,19,0,0,0-4.23-1.38,1.38,1.38,0,0,0-.52-.16,20.16,20.16,0,0,0-5.93-.85c-.75-.55-1.67-.15-2.47-.41,0-.11,0-.21,0-.32h-6.39a1.15,1.15,0,0,1,0,.32l0,.09c-.74.11-1.53-.25-2.22.26a19.14,19.14,0,0,0-5.63.73,6.28,6.28,0,0,0-1.76.72.74.74,0,0,0-.72.35,7.53,7.53,0,0,0-2.8,1.85c-.34.11-.5.42-.72.66a.35.35,0,0,0-.3.38l0,0a.66.66,0,0,0-.43.63l-.33.37a.45.45,0,0,0-.37.33,2.4,2.4,0,0,0-1.13,1.37,8.76,8.76,0,0,0-1.4,2.54l-1,1.39a.79.79,0,0,0-.64.43l0,0-.45.26c-.37.21-.8.33-1,.72a9.21,9.21,0,0,0-2.08,1.47,7.58,7.58,0,0,0-2.81,2.14c-.94,1-2.14,1.63-2.82,2.84a.27.27,0,0,0-.13.24,1.77,1.77,0,0,0-.61.89,1.52,1.52,0,0,0-.68,1l-.7,1.06c-1.3,3.34-2.31,6.78-3.39,10.2-.75,2.35-3.46,6.59-3.44,8.9a20.76,20.76,0,0,0-1.19,2.47.35.35,0,0,0-.29.35l-.29.42s0,0,0,0l0,0a23.49,23.49,0,0,0-2.44,5.69,2.69,2.69,0,0,0-.43,1.74c-1.71,3.9-1.66,7.6-4.53,11.31a4.27,4.27,0,0,0-1.17,2.25,13.73,13.73,0,0,1,0,1.57c-.33,1.92-2.87,4.07-3.56,6.17a.39.39,0,0,0-.3.39.42.42,0,0,0,0,.29,1.55,1.55,0,0,0-.37,1.11c-.28.13-.33.4-.39.66a.49.49,0,0,0-.22.45l-.46.64a2.73,2.73,0,0,0-1.35,1.16c-2.63.91-8,8.32-8.39,10.95a1.5,1.5,0,0,1-1.23,1.35,2.89,2.89,0,0,0-1.42,2.56.26.26,0,0,0-.07.25c-.6.23-1.25.4-1.41,1.16a1.38,1.38,0,0,0-.74,1.06,4.42,4.42,0,0,0-1,2.48c-1.15.45-2.2,1-2.06,2.48-.18.35-.45.68-.33,1.12a1.14,1.14,0,0,0-.07.32l-.75.93c-3,1.19-4.41,6.06-5.8,8.62a8.06,8.06,0,0,1-1,1.49c-.3.34-.66.63-1,1s-1.18,4.34-1.57,4.25a.19.19,0,0,0-.24.12.37.37,0,0,0-.41.21,1.32,1.32,0,0,0-1,1.13.41.41,0,0,0-.35.38,18,18,0,0,0-3.17,4.37c-1.43,3.54-3.11,4.67-5.59,6.85a9.35,9.35,0,0,1-4,1.58.44.44,0,0,0-.39.31s.06.07,0,.09a.36.36,0,0,0,0-.09c-.47.06-1.28,1-1.91,1.24-1.43.45-3.67-.17-5-.72a5,5,0,0,0-2.21-.64c-.78.07-1.57.58-2.27.25-1.1-.52-2-1.1-3-1.52-.34-.15-3.65-1.23-3.61-1.17a4.2,4.2,0,0,0-3.22-1.78L609,151a.77.77,0,0,0-.66-.91c-2.21,0-4.39-4.69-5.44-6.19-.81-1.15-5.85-8.06-4.11-9.61a.28.28,0,0,1-.12.08l.12-.08a1.53,1.53,0,0,0-.32-1.09,4,4,0,0,0-.7-1.75l-.06-1c0-.12,0-.24,0-.36.94-2-.68-3.11-.82-4.91-.1-1.23.89-3.2.13-4.33-.39-1.06.21-2.13,0-3.18l0-1c0-1,2-4.12,2.48-5.36,1-2.83,2.06-5.82,3.24-8.6a40.93,40.93,0,0,1,2.26-4.3c.5-.86,3.33-7.68,4.1-7.68a.46.46,0,0,0,.3-.39,4.43,4.43,0,0,0,1.06-2.49.23.23,0,0,0,0-.28c.44-1.45,1.43-2.73,1.39-4.33.46-1.55.37-7.19,1.07-8.17a5.8,5.8,0,0,0,.73-4.25,13.92,13.92,0,0,0-.31-5,4.25,4.25,0,0,0,0-3.23,9.1,9.1,0,0,1-.37-2.06,10.12,10.12,0,0,0-.66-3.65,2.56,2.56,0,0,0-.36-1.79c0-1.49,0-3-.05-4.49a.3.3,0,0,0,0-.29,1.48,1.48,0,0,0,0-1.57,2.35,2.35,0,0,0,0-1.34,6.65,6.65,0,0,0-.74-3.19.72.72,0,0,0-.28-.73c-.09-.49.08-1-.3-1.46l0-1.51a2,2,0,0,0,.32-1.26,2.15,2.15,0,0,0,.31-1.76,1,1,0,0,0-.68-1.09c-.49-.58-1-.33-1.57-.09A3.28,3.28,0,0,0,607.05,39a4.73,4.73,0,0,1-1.21,2.6,7.26,7.26,0,0,1-1.74-.14,8.67,8.67,0,0,0-6.42.89c-.11.13-.24.23-.35.35l-.36.36a3.82,3.82,0,0,0-.34.36.49.49,0,0,0-.35.36,2,2,0,0,0-.36.36l-.06.32a4.71,4.71,0,0,0-1.41,1.4,3.17,3.17,0,0,0-1.37,1.82,3.46,3.46,0,0,0-.35.79,5.46,5.46,0,0,0,1.36,4.58.3.3,0,0,0,.07.29,5.14,5.14,0,0,0,1.41,2.81l0,0a.37.37,0,0,0,.31.36c2.84.85,3.25,3.76,5,5.63l0,0a3.47,3.47,0,0,0,.29.38,12.77,12.77,0,0,1,.5,7.77c-.75,2.91-2.8,6.76-3,9.62-.08.67.21,1.48-.69,1.83-1.7.68-3.31,6-4.16,7.61-1.24,2.3-2.86,4.82-4,6.88l-.75,1.3-.34.44a7.25,7.25,0,0,0-2,3.26.42.42,0,0,0-.13.3c-.59.54-1.41,3.57-1.78,4.38-1,2.15-2,4-2.27,6.4-.16,1.45-1.17,6.19-2.67,7v8.17c0,2.32.62,3.61,1,5.69.48,2.64.22,5.17,1.23,7.74a71.62,71.62,0,0,1,2.31,8,3.49,3.49,0,0,0,.51,1.32,4.65,4.65,0,0,0,1.35,3.53c2.07,2.56,5.08,11.23,8.15,12.13.61.61,1.11,1.42,2.15,1.35l1.09.39.95.79c.25,1,.38,2,1.4,2.5a.45.45,0,0,0,.44.3.3.3,0,0,0,.36.2l1.81.75.34.06a1.31,1.31,0,0,0,1,.4c1.29-.11,3,2.92,4.57,3.29,2.5.58,4.68,3.14,7.18,2.69a8.7,8.7,0,0,1,4.92.76c3.21,1.31,5,.18,8.06.9a8.07,8.07,0,0,0,1.41.35c1.43.07,2.66-1.31,4-1.69,1.82-.51,3.85-.35,5.72-1,5.17-1.87,9.84-6.26,15-7.61a13.18,13.18,0,0,0,6-3.75c.85-.85,2.16-3.54,3.54-3.45a.69.69,0,0,0,.71-.42,13.51,13.51,0,0,0,2.53-2.48c1.56-2.05,6-6.78,8.6-7.36a.71.71,0,0,0,.58-.47,4,4,0,0,0,1.5-1.31c2.82-1.77,4.37-4.65,6.66-6.89.3-.29.59-.8,1.12-.29-.23,2.85-1.64,5.4-1.8,8.31a2.08,2.08,0,0,0,1.41,2.35c.14.31.3.25.45,0l.16,0,.13-.09a.55.55,0,0,0,.69-.32,3.07,3.07,0,0,0,1.12-1.53,5.74,5.74,0,0,1,2.88-3,4.58,4.58,0,0,0,2.48-3.55.46.46,0,0,0,.31-.4,3.33,3.33,0,0,1,2-.34,3.83,3.83,0,0,0,3-1.08.47.47,0,0,0,.44-.34,2.61,2.61,0,0,0,1.44-1h.14l.09-.1a.69.69,0,0,0,.73-.29,1.26,1.26,0,0,0,1.1-.31c1.12-.11,1.41-1,1.73-1.84a1.21,1.21,0,0,0,.38-1,1.18,1.18,0,0,0,.36-.75,16,16,0,0,1,2.77,0,3.37,3.37,0,0,0,3.6-.39l2.69,1.1a4.59,4.59,0,0,0,2.24.71c.25.35.63.26.95.23a17.45,17.45,0,0,0,5.88-1.31c.36,0,.77,0,1.05-.3,1.16-.3,2.4.09,3.54-.37l3.16-.08.08.09.11,0a3.83,3.83,0,0,0,3.53,0,14.1,14.1,0,0,0,4.43-2.88l1.47-1a.72.72,0,0,0,.72-.37.91.91,0,0,0,.69-.37c.87-.49,1.81-.93,1.74-2.18a.27.27,0,0,0,.15-.28,1,1,0,0,1-.23-.16l.23.16,1.29-.77c.68,0,1.29-.55,2-.31a.38.38,0,0,0,.46.31c.16.29.47.33.74.39a4.12,4.12,0,0,1,3.1,2.5c.27.67.92,1,1.44,1.44.56.68,1.73.47,2.1,1.43a3.68,3.68,0,0,0,2.56,2.76,3.61,3.61,0,0,0,2.52.36c1.4-.11,1.74.22,1.81,1.66,0,.63-.1,1.29.35,1.85a3.88,3.88,0,0,0,1.42,1.78c.06.71.45,1.39.23,2.14a.64.64,0,0,0-.29.73,1.15,1.15,0,0,0-.35,1.05,2.24,2.24,0,0,0-.29,1,29.25,29.25,0,0,0,1,7.9c0,.64,0,1.29,0,1.93a4.15,4.15,0,0,0,1.36,3.1l.34.32a.67.67,0,0,0,.43.68c.42.85,1.36,1.29,1.74,2.18a.29.29,0,0,0,.1.31.69.69,0,0,0,.28.71,14,14,0,0,1,.72,4.25,3.41,3.41,0,0,0,.68,2.54,1.77,1.77,0,0,0,.43,1c0,.48.38.76.65,1.1a.44.44,0,0,0,0,.32l-.39.71c-.23.36-.47.71-.71,1.06a2.53,2.53,0,0,0-.73,1,1.35,1.35,0,0,1-.31.45,1.83,1.83,0,0,0-.71,1,11.18,11.18,0,0,1-1.43,2.13,1.43,1.43,0,0,0-.77,1c-.09.13-.18.26-.29.4a2.65,2.65,0,0,0-.33.34.4.4,0,0,0-.29.38l-.16.31a.3.3,0,0,0-.31.28c-.56.18-.61.68-.75,1.14a5.76,5.76,0,0,0-1.72,1.79l-.71,1.07a1.39,1.39,0,0,0-.66.73.29.29,0,0,0-.12.25c-.34.38-.8.64-1,1.15l-.36.73a1.48,1.48,0,0,0-.71.71,17.44,17.44,0,0,0-2.49,3.53,6.42,6.42,0,0,0-1.08,1.77,2.25,2.25,0,0,0-.76,1,29.15,29.15,0,0,0-2.45,4.36,3.51,3.51,0,0,0-1,1.8,1.91,1.91,0,0,0-.46,1,1.81,1.81,0,0,0-.59,1.17,3.23,3.23,0,0,0-.7,1.41.23.23,0,0,0-.12.26,2.76,2.76,0,0,0-.73,1.5c-.36.25-.47.68-.69,1a3.55,3.55,0,0,0-1,1.45,21.15,21.15,0,0,0-2.48,3.53,29.94,29.94,0,0,0-2.87,3.86,21.28,21.28,0,0,0-2.11,2.53.41.41,0,0,0-.37.36,1.43,1.43,0,0,0-.71,1,3,3,0,0,0-1.44,1.46.34.34,0,0,0-.34.3,9.55,9.55,0,0,0-1.73,2.22,8.46,8.46,0,0,0-1.86,2.46,1,1,0,0,0-.65.71,2.16,2.16,0,0,0-.71,1.07.56.56,0,0,0-.4.62c-.3.34-.69.62-.7,1.14a2.08,2.08,0,0,0-.69,1,2,2,0,0,0-.68,1.13.91.91,0,0,0-.4.69.66.66,0,0,0-.38.63,2.44,2.44,0,0,0-.89,1.28,44.06,44.06,0,0,0-3.33,10.53,7,7,0,0,0-.7,3.12c-.39.44-.3,1-.35,1.49a4.34,4.34,0,0,0-.3.8,36.49,36.49,0,0,0-.34,9.16,2.93,2.93,0,0,0-.06,3.2l.1.7a8.56,8.56,0,0,0-.69,1.21,4.5,4.5,0,0,0-.11,4.12l.31.51c-.66,1.74-1.42,3.47-1.09,5.42a3.21,3.21,0,0,0-1.31,1.89A4.07,4.07,0,0,1,718,282.4a1.54,1.54,0,0,0-1,.66,6.74,6.74,0,0,0-1.85,3.87c-.47.49-.47,1.18-.74,1.75a.49.49,0,0,0-.29.4l0,0c-.17,0-.29.13-.27.33a.26.26,0,0,0-.14.29.4.4,0,0,0-.34.4,2.42,2.42,0,0,0-.72,1.06c-.35.35-.69.71-1,1.07a.41.41,0,0,0-.34.39,1.46,1.46,0,0,0-.75,1,2.74,2.74,0,0,0-.69,1.5,5.14,5.14,0,0,0,.06,2.83l-.42,1.37a.39.39,0,0,0-.25.42.3.3,0,0,0-.13.26.43.43,0,0,0-.31.43c-.82,1.4-.36,2.52.76,3.49a2.61,2.61,0,0,0,1.71,1.16c1.3,1.08,23,0,23.3,0a1.55,1.55,0,0,0,1.23.27,7,7,0,0,0,4.62-1.72c1.28-.68,2-2,3.21-2.76,1.31-.22,2-1.21,2.86-2.11,1.62-1.33,2.41-3.21,3.26-5A.67.67,0,0,0,750,293a11.56,11.56,0,0,0,1.06-4.63c.45-.78.05-1.7.4-2.49a3.92,3.92,0,0,0,.66-2.86c.23-2.3.45-4.6-.66-6.77l-1.08-4.7c-.1-1.49.9-2.71,1-4.16,1.19-1.89.29-3.78,0-5.67a2.67,2.67,0,0,0,0-.85,1.86,1.86,0,0,1,1.14-2.62c1.74-1,3.47-2,5.22-2.93a51.74,51.74,0,0,0,9.32-6.34,28.63,28.63,0,0,0,4.3-3.21.3.3,0,0,0,.34-.28,26.8,26.8,0,0,0,3.52-2.56.38.38,0,0,0,.38-.34c.27-.05.54-.1.66-.41a8.86,8.86,0,0,0,2.29-1.7,10,10,0,0,0,2.75-2.12,4.56,4.56,0,0,0,1.69-1.14,1.72,1.72,0,0,0,.78-.6,11.62,11.62,0,0,0,2.51-1.85,1.59,1.59,0,0,0,.68-.7,17.7,17.7,0,0,0,4.66-3.84.81.81,0,0,0,.6-.46,1.29,1.29,0,0,0,.77-.66c.92-.26.65.69,1,1a9.26,9.26,0,0,0,.65,3.6.81.81,0,0,0,.09.66,1,1,0,0,0,.3.92l.07.5a1.46,1.46,0,0,0,.32,1.1,8.16,8.16,0,0,0,1,2.14,30.09,30.09,0,0,0,2.55,4.57,13,13,0,0,0,.65,5,1.32,1.32,0,0,0,.37,1.05.74.74,0,0,0,.29.72c.19.7-.09,1.48.4,2.12l0,1.41a1.55,1.55,0,0,0,0,1.06,2.73,2.73,0,0,0,0,1.42,10.86,10.86,0,0,0,1,3.71,13.57,13.57,0,0,0,.7,3.78,2.07,2.07,0,0,0,.41,1.4c0,.3,0,.59.27.78a1,1,0,0,1,.16-.12l-.16.12c0,.61.39,1,.73,1.41a3.33,3.33,0,0,0,1.19,1.81,1.76,1.76,0,0,1,.65,1.66c-.47.54-.23,1.19-.26,1.8a3,3,0,0,0,.23,2.18,5.45,5.45,0,0,0,1.05,3.51,4.4,4.4,0,0,0,.73,1.76c0,1.57.87,2.87,1.46,4.25a.58.58,0,0,0,.36.71.45.45,0,0,0,.29.46.2.2,0,0,0,.07.24.51.51,0,0,0,.37.63l.77.79a.72.72,0,0,0,.55.47,2.57,2.57,0,0,0,1.23.93,2,2,0,0,1,1.35,2.16v1.43c-.08.7-.18,1.4-.22,2.11a1.78,1.78,0,0,0,.81,1.82c.31.77-.57,1.09-.64,1.72a3.89,3.89,0,0,0-.34,2.86c-.1.05-.12.12,0,.21l-1.06,1.5a.41.41,0,0,0-.37.35.73.73,0,0,0-.6.43l-.05,0-.35.29.35-.29c-.2,0-.3.11-.37.31a.46.46,0,0,0-.45.31c-2.85,1.82-4.5,4.64-6.23,7.4a3.55,3.55,0,0,0-.11,2.87.36.36,0,0,0-.24.43.16.16,0,0,0-.12.22l-.65.83c-.46.6-1,1.17-1.38,1.81a3,3,0,0,0-.39,2.81.39.39,0,0,0,.37.35c.11.29,34,.39,34.85-.27h.16l.12-.11c.19,0,.34,0,.4-.21a.37.37,0,0,0,.36-.36.44.44,0,0,0,.33-.45.77.77,0,0,0,.36-.71c.36-.43.63-.92,1.23-1.13a1.16,1.16,0,0,0,.92-.91.43.43,0,0,0,.26-.46l.12-.32c.34-.64-.07-1.09-.37-1.57a8.39,8.39,0,0,1-.45-2.72,33.59,33.59,0,0,0,.1-8.5,3.34,3.34,0,0,1,.57-2.23,4.22,4.22,0,0,0,.81-2.81c0-.81,0-1.63,0-2.44a.64.64,0,0,0,.08-.87l.05-.11-.07-.09a3.68,3.68,0,0,1-.37-.32l.37.32a.2.2,0,0,0,0-.31,3.12,3.12,0,0,0,.12-1.25c.16-2.32.06-4.64.17-6.95a.31.31,0,0,0,.06-.29c0-.11,0-.21,0-.32a18.74,18.74,0,0,0-.07-5.79.28.28,0,0,0,0-.29,1.41,1.41,0,0,0,0-1.49.22.22,0,0,0,0-.32.43.43,0,0,0,.07-.26,5.53,5.53,0,0,0,0-3.39.66.66,0,0,0-.12-.32,7.85,7.85,0,0,0-.44-3.15,26.09,26.09,0,0,0-1.3-4.67c-.07-.49,0-1-.38-1.43a2.6,2.6,0,0,0-.34-1.47.16.16,0,0,0,0-.24,1.29,1.29,0,0,0-.31-1.1.27.27,0,0,0-.06-.32,2.5,2.5,0,0,0-.34-1.77.69.69,0,0,0,0-.72.87.87,0,0,0-.27-.74,9,9,0,0,0-.76-3.19,2.23,2.23,0,0,0-.34-1.42.67.67,0,0,1-.15.06l.15-.06c0-1.09-.59-2.08-.46-3.17a15.44,15.44,0,0,1,0-5,2,2,0,0,0,.11-1.36c.56-1.51.3-3.07.29-4.61q0-5.26,0-10.51a1.25,1.25,0,0,0-.29-1,2.46,2.46,0,0,0,0-1.29c.16-2-.19-3.92.11-5.88a1.23,1.23,0,0,0-.48-1.24c0-1.06.74-2.13,0-3.18a.8.8,0,0,0-.36-.72c-.34-1,.39-2.21-.32-3.22.13-1,.26-1.13,1.38-1a1.78,1.78,0,0,0,1.81.39l.33-.07c.67-.26,1.14.25,1.7.45a5.11,5.11,0,0,0,4-.07,5.55,5.55,0,0,0,3.54,1.07,2.18,2.18,0,0,0,1.07.72c1,.79,2.27.81,3.44,1.12.75.2,1,1,1.51,1.4.75,1.72,2.22,2.1,3.9,2.1a2,2,0,0,0,1.08.73.32.32,0,0,0,.38.27l0,0a.69.69,0,0,0,.66.35l0,0a.75.75,0,0,0,.69.33l.07.09.12,0a.94.94,0,0,0,.83.35.32.32,0,0,0,.39.23l.34.12a1.53,1.53,0,0,0,.75.6l.06,0a.57.57,0,0,0,.63.35l.09.1.13,0a.44.44,0,0,0,.48.22l1.69.5c.84.75,2,.47,2.94.93.07.08.11.13.14.13a3.36,3.36,0,0,0,1.93,1.07c1.63.45,1.63.45,2.51,1.43a4.79,4.79,0,0,0,3.51,1c.58.3,1.28,0,1.85.44a4.43,4.43,0,0,0,2.87.66,6.76,6.76,0,0,1,4.14,1.06.81.81,0,0,0,.73.35c.44.39,1,.24,1.48.29a.81.81,0,0,0,1.09,0l.17,0,.17-.06c.66.26.88,1.2,1.76,1.13a4.75,4.75,0,0,0,2.5.33.88.88,0,0,0,.71,0,10.85,10.85,0,0,0,2.47.37,2.42,2.42,0,0,0,2.53,0,5.32,5.32,0,0,1,1.38.17,3.84,3.84,0,0,0,2.88-.19.24.24,0,0,1,0-.1l0,.1.33-.12c1.11-.27,2.11.39,3.19.41l1.39.12a1.15,1.15,0,0,0,1.52-.06,1.19,1.19,0,0,0,1-.34c1.4-.4,2.88.08,4.27-.38l5.28-.75a9.29,9.29,0,0,0,2.58,0,2.13,2.13,0,0,1,1.61.38.39.39,0,0,0,.43.3h0a6.37,6.37,0,0,0,1.76,1.08c0,.19.14.29.34.27a.25.25,0,0,0,.29.12.85.85,0,0,0,.74.38,3.15,3.15,0,0,0,1.73.7,8.77,8.77,0,0,1,2.84,1.85,1.21,1.21,0,0,0,.78.94,11.16,11.16,0,0,0,6,3.24,3,3,0,0,0,.8,1.37.44.44,0,0,0,.27.48,1.68,1.68,0,0,0,.74,1,.81.81,0,0,0,.48.67l.34.35a8.11,8.11,0,0,0,2,2.23.41.41,0,0,0,.37.32c.34.75.69,1.5,1,2.25l0,.12.09.07a.77.77,0,0,0,.32.73.76.76,0,0,0,.35.74,4.36,4.36,0,0,0,1.45,2.12,1.56,1.56,0,0,1,.68,1.34,3.44,3.44,0,0,0-.09,3.06.35.35,0,0,0,.11.18,6.41,6.41,0,0,1,.53,2.85,1.71,1.71,0,0,0,.48,1.43,1.73,1.73,0,0,0,.48,1.06c0,.58,0,1.16,0,1.75-.79,1.18.07,2.37,0,3.55a3.42,3.42,0,0,0,.32,2.76,1.75,1.75,0,0,0-.36,1.15c-.3.17-.27.46-.25.74-.4.93.16,1.88-.07,2.81a4.63,4.63,0,0,0,0,3.65l.39,1.3a3.91,3.91,0,0,0-.75,1.39,5.73,5.73,0,0,0-.27,2.9,1.64,1.64,0,0,0,.28,1.51,1.61,1.61,0,0,0,.37,1s.13-.08.14-.07l-.14.07a1.76,1.76,0,0,0,0,1l-.08.1.06.11a5,5,0,0,0,0,3.71,3.37,3.37,0,0,0,.32,2.14,2.17,2.17,0,0,0,.37,1.52,1.6,1.6,0,0,0,.42,1.3c.13.84-.6,1.38-.75,2.13a2.7,2.7,0,0,0-.73,2.06l-.71,1.11-1.08,1.05c-.28,0-.58,0-.7.35a.39.39,0,0,0-.38.36.4.4,0,0,0-.29.41,7.72,7.72,0,0,1-2.87,3.13c-.67.45-1.58.83-1.75,1.83l-.07.11-1,1.66c-.85.58-1.85,1-2.12,2.14.07,0,.12,0,.1.12l-.1-.12-.15.31a.31.31,0,0,0-.28.36.59.59,0,0,0-.28.73V315a6.54,6.54,0,0,1-1,2.38c-.57,1-1.12,2.09-.38,3.28a.33.33,0,0,0,.28.39c.65.81,44.35,1.49,44.8-.06.46-.43.2-3,.34-3.51l.06-.68c.36-.32.28-.75.27-1.16a27.66,27.66,0,0,1,.36-5.6,3.21,3.21,0,0,0,.79-1.37,4.35,4.35,0,0,0,1.65-2.92,1.26,1.26,0,0,0,.4-1c1.22-3.45,2.73-6.81,3.24-10.5a9.27,9.27,0,0,0-1-6.23,1.9,1.9,0,0,0-.39-1.4,37.14,37.14,0,0,0-2.84-9.68c-.23-1.27-.47-2.53-.71-3.8a14.4,14.4,0,0,0-.69-4.32,13.85,13.85,0,0,0-.77-3.87,1.33,1.33,0,0,0-.31-1.06,26.05,26.05,0,0,0-1.41-6.29,8.74,8.74,0,0,1,.25-6.13,4,4,0,0,0,1.14-1.74,1.74,1.74,0,0,1,1-.14,3.16,3.16,0,0,0,2.2-.21,3,3,0,0,0,2.5-1A.38.38,0,0,0,989,248a1.26,1.26,0,0,0,.73-.72.44.44,0,0,0,.3-.42l.66-.74a2.42,2.42,0,0,1,1.59.62,7.62,7.62,0,0,0,4,1.56c.78.49,1.77.23,2.56.7a17.12,17.12,0,0,0,2.44,1.78,18.61,18.61,0,0,0,2.87,2.88c.24.34.35.77.74,1a2,2,0,0,0,.69,1.11.75.75,0,0,1,0-.45l0,.45a1.78,1.78,0,0,0,.73,1,1.14,1.14,0,0,0,.68.71,1.37,1.37,0,0,0,.71.73.53.53,0,0,0,.34.47.17.17,0,0,0,.11.22.49.49,0,0,0,.25.46,13.88,13.88,0,0,0,2.15,3.85,12.24,12.24,0,0,0,1.49,2.41,30.48,30.48,0,0,0,2.89,4.24,1.25,1.25,0,0,0,.6.77.41.41,0,0,0,.3.37,1.83,1.83,0,0,0,.72,1.11,3.56,3.56,0,0,0,1.11,1.38,17,17,0,0,0,3.13,3.94,33.64,33.64,0,0,0,3.24,3.19,8.89,8.89,0,0,0,1.75,1.82c0,.11,0,.19.1.22l1,1a10.83,10.83,0,0,0,2.15,1.39l.69.43a.41.41,0,0,0,.34.36.33.33,0,0,0,.36.36c.47.47,1.18.41,1.71.74.48,1.38.31,2.92,1.13,4.2a1,1,0,0,0,.39.71c0,.46.32.71.61,1A1.52,1.52,0,0,1,1035,294a22.81,22.81,0,0,0-1,3.53,10.37,10.37,0,0,0-.73,2.16,3.29,3.29,0,0,0-.65,1.81,2.74,2.74,0,0,0,.37,1.42l-.09.59c-.47,1.3-1.21,2.56-.67,4a.71.71,0,0,0,.36.72l0,0c.2,1.38-.34,2.68-.42,4,0,.65,19.45.27,21.05-.48,1.17-.41,2.43.35,3.25-.72a1.51,1.51,0,0,0,.59-.73l2.23-1.71a.34.34,0,0,0,.37-.3.41.41,0,0,0,.31-.16.42.42,0,0,0,.47-.27,10.41,10.41,0,0,0,2.21-1c1.93-.82,6.2-14.54,4.5-16.18l-.09-.64a3.82,3.82,0,0,0-.4-1.76l-.31-1.08a.83.83,0,0,0,0-.72,1.54,1.54,0,0,1-.27.15.89.89,0,0,1,.27-.15,5.67,5.67,0,0,1,0-3.55,7.58,7.58,0,0,0,0-3.9.69.69,0,0,0-.31-.79.33.33,0,0,0-.28-.34c-.19-.59.19-1.31-.41-1.81-.53-1-.38-2.2-1.13-3.1a3,3,0,0,0-.68-1.44,1.65,1.65,0,0,0-.34-1.21l0-.11-.08-.07a3.2,3.2,0,0,0-1-1.82,2.91,2.91,0,0,0-1.49-1,.78.78,0,0,0-.69-.37c-.37-.44-.94-.2-1.37-.41-.15-.31-.47-.3-.73-.38a3.4,3.4,0,0,0-.68-1.45c-.06-.42-.37-.56-.74-.62l-.37-.34c0-.29,0-.58-.33-.73a.82.82,0,0,0-.42-.67c-.08-.32-.35-.41-.62-.49-.35-.75-1.16-.75-1.77-1.06a.23.23,0,0,0-.11-.23.58.58,0,0,0-.34-.65l0,0a3.94,3.94,0,0,0-1.74-1.71l-2.88-2.56c-.14-.53-.7-.44-1-.73a.34.34,0,0,0-.4-.3.65.65,0,0,0-.63-.45l-2.47-2.14a1,1,0,0,0-.73-.7l-.72-1a1.87,1.87,0,0,0-1.15-1.39,1.74,1.74,0,0,0-1-.78,1.1,1.1,0,0,0-.73-.69,3.2,3.2,0,0,0-1.42-1.07l-.35-.34a.76.76,0,0,0-.39-.69,2.82,2.82,0,0,0-1.06-1.78,2.09,2.09,0,0,0-.71-1.06.37.37,0,0,0-.33-.39.64.64,0,0,1-.1.13l.1-.13a.45.45,0,0,0-.34-.35c0-.5-.42-.75-.75-1a8,8,0,0,0-1.07-1.74,2,2,0,0,0-1.07-1.1l-1-1.06s0-.09,0-.12a2.25,2.25,0,0,0-.08-.24.32.32,0,0,0-.26-.4.3.3,0,0,0-.26-.34,1.65,1.65,0,0,0-.81-1,1.2,1.2,0,0,0-.72-.74c-.59-.94-1.59-1.62-1.79-2.8a18.87,18.87,0,0,0-.35-3.9c-.14-1,.26-2-.31-3l0-.58a4.19,4.19,0,0,0-.32-2.16c0-.22,0-.44-.08-.67l0-.36a12.71,12.71,0,0,0,.66-5.67,21.72,21.72,0,0,0-1.67-5.7.45.45,0,0,0,0-.34.62.62,0,0,0,0-.71,27.81,27.81,0,0,0-.51-4.47,1.56,1.56,0,0,0-.15-.55.83.83,0,0,0-.15-.68c0-.16,0-.3-.18-.38a1.48,1.48,0,0,0-.35-1.12.21.21,0,0,0-.08-.26c-.12-.73-.34-1.45-.44-2.2a6.76,6.76,0,0,0-.95-3.12.79.79,0,0,0-.34-.72c-.35-.6-.71-1.19-1.07-1.78a2.54,2.54,0,0,1-.4-1.63,15.55,15.55,0,0,0,.05-3.27,9.71,9.71,0,0,0,0-4.67v-.36a32.9,32.9,0,0,0-.37-6v-.71a8,8,0,0,0,0-2.13,37.44,37.44,0,0,0-.52-7.09,1.37,1.37,0,0,0-.17-1.06,37.85,37.85,0,0,0-.68-6.45,13.08,13.08,0,0,0-1.08-4.93,4.94,4.94,0,0,0-1-2.51.58.58,0,0,0-.34-.73,2,2,0,0,0-.73-1.08.36.36,0,0,0-.32-.37c-.84-1.34-1.87-2.6-1.69-4.36a1.65,1.65,0,0,0-.5-1.25c.09-.43-.3-.7-.38-1.07,1-1,2.26-1.78,2.89-3.13a1.35,1.35,0,0,1,2-.32.38.38,0,0,0,.42.28l.12-.12-.12.12a6.41,6.41,0,0,0,3.89,1.11c2.67.46,5.34.84,7.92-.45.72-.36,1.47-.8,2.31-.26a2.4,2.4,0,0,0,1.53,2l1.76,1.17a6.89,6.89,0,0,0,1.4,1.78,1.3,1.3,0,0,0,1.06.76.72.72,0,0,0,.73.29.92.92,0,0,0,.72.37,12.14,12.14,0,0,0,2.86,3.16.64.64,0,0,0,.68.39,17.47,17.47,0,0,0,2.82,2.88,1.29,1.29,0,0,0,.69.69,3.34,3.34,0,0,0,1,1.85,2.53,2.53,0,0,1,1.21,2.29,3.34,3.34,0,0,0,.62,1.95c.57.94.74,2.13,1.78,2.77.77,2.52,2,4.9,2.48,7.51l0,.64a9.63,9.63,0,0,0,1,5.8,1.23,1.23,0,0,1,.11.51c.2,2.81.43,5.61.41,8.43s-.15,5.78-.07,8.66c0,1.68-.11,3.42.69,5a6.29,6.29,0,0,0,.66,2.59.67.67,0,0,0,.1.6.72.72,0,0,0,.31.71c.8,3.15,2.65,5.78,4.22,8.54a3.68,3.68,0,0,0,1.06,1.52.16.16,0,0,0,.11.23.32.32,0,0,0,.26.38.46.46,0,0,0,.34.46,27.12,27.12,0,0,0,2.43,3.82,1.88,1.88,0,0,0,.73,1.08.68.68,0,0,0,.41.68.79.79,0,0,0,.38.69.76.76,0,0,0,.27.73.81.81,0,0,0,.13.68c-.16,1.13.56,1.94,1,2.86a1.32,1.32,0,0,0,.31,1.11,2.61,2.61,0,0,0,.77,1.37.74.74,0,0,0,.35.72.35.35,0,0,0,0,.33s0,.1,0,.14a1.22,1.22,0,0,0,.1.24c.08.77-.37,1.58.22,2.3l0,.14a.78.78,0,0,0,0,1l.08.09v0a2.23,2.23,0,0,0,.25,1.32.39.39,0,0,0,.08.1,1.46,1.46,0,0,0,.33,1.15.19.19,0,0,0,.06.27A6.12,6.12,0,0,0,1071,238c.09.36.19.71.65.77a.71.71,0,0,0,.73.24l.36,0c.54,0,.55-.4.7-.72.49-.34.26-.92.44-1.36l.15,0,.14,0v-4.62A.26.26,0,0,0,1073.84,232.24Z" transform="translate(-24.26 -22.82)"/><path d="M348,178.63c3.21,3.94,6.13,8.22,11.26,10,2.82,1.57,5.45,3.61,8.84,3.87h0c5.6,2.59,11.59,3.19,17.63,4.07a48.17,48.17,0,0,0,16.78-.63,6,6,0,0,1,2.13.42h0c0,.69.18,1.17,1,1.21h0l.12,1.09h0a7.42,7.42,0,0,0,3.35,4.91h0c.3,1.86-.77,4,1.14,5.51h0l1,1.84h0a.46.46,0,0,0,.09.39,2.66,2.66,0,0,0,1.67,2.17l0,0h0a3,3,0,0,1,1,3.12c-.16.67-.29,1.46.6,1.85h0l1.53,1.75h0a3.32,3.32,0,0,0,2.2,2.31h0c3.08,1.36,4.92,4.32,7.74,6h0a4.32,4.32,0,0,0,2.91,1.59l6.63,1.66h0a25.14,25.14,0,0,0,6.08,1.16c.63.62,1.45.42,2.2.52h0a7.55,7.55,0,0,0,5.61,1.05l3.24,0,.68-.26h0c1.66-.42,1.5,1.72,2.72,1.94h0c.9.84.64,2.52,2.12,2.95h0c1.55,8.74,3.6,17.43,2.3,26.42h0c0,.4,0,.8,0,1.2h0a2.27,2.27,0,0,0-.08,2.77.47.47,0,0,0,0,.46h0c-.66,2.56-.63,5.26-1.59,7.76h0a.77.77,0,0,0-.25.52,17.8,17.8,0,0,0-1,5.47h0c-1.31,3.05-.69,6.36-1.3,9.5-1,5.21-2.22,10.39-3.31,15.6a19.21,19.21,0,0,0-.22,2.17c-.77,3.34-1.65,6.67-2.26,10.05-.26,1.43-1.61,2.21-1.7,3.64h0l-1.67,4c-1.22,1.56-.69,3.5-1,5.23a38.28,38.28,0,0,0-.08,6.43c0,.73,0,1.46,0,2.19,0,3,.2,5.9,2.23,8.34h0a5.34,5.34,0,0,0,2.84,3.82l.51.6h0l2.55,6.18a1.35,1.35,0,0,0,.21.51,18,18,0,0,1-.25,10.2,14.84,14.84,0,0,0-.36,3,10,10,0,0,0-1.63,3.34h0c-.6.79-.24,1.32.48,1.75h0c1.07,1,1.5,2.82,3.44,2.75l4.44.51h0l1.11,0h3.32a5.77,5.77,0,0,0,5,0h0a5.76,5.76,0,0,0,3.37-2.59h0a12.57,12.57,0,0,0,3.37-2.92l.46-.57a2.17,2.17,0,0,1,0-.72c.11.08.14.29,0,.72l1.12-1.61c2-2.3,4.36-4.35,5.67-7.21,2.12-2,.75-3.53-.64-5.08h0a2.45,2.45,0,0,0-1.13-1.65,5.07,5.07,0,0,0-3.38-3.31c-4.7-3.42-6.78-8-5.95-13.77h0c1.13-.72.15-1.41,0-2.11,1.56-1.57.93-4,2.23-5.67q2.43-6.37,4.87-12.74h0l3.54-7.75h0q1.32-2.4,2.65-4.8h0l2.21-4h0c.73-1.1,1.45-2.2,2.18-3.29h0l1.05-2.32c1.16-.82.93-2.12,1.14-3.27h0c2.48-.48,1,2.13,2.11,2.72a5.93,5.93,0,0,0,.56,3.47c.6,6.26,0,12.62,1.65,18.79,2.21,5.49,0,11,0,16.48h0a19.15,19.15,0,0,0-1.14,4.95h0c-.34.4-.17.77.07,1.13h0c.23,1.28-.52,2.7.57,3.85h0l.48.29h0c0,1.24-.48,2.54.52,3.64,2.36,4.06,2.91,8.21.58,12.49h0c-1.64,3-1.72,6.55-3.26,9.59h0c-1.17.57-1.17,1.83-1.64,2.81h0a3.18,3.18,0,0,0-1,2.76l-.54.63h0a2.33,2.33,0,0,0-1.66,1.69.51.51,0,0,0,0,.48c-2.38,2.51-2.14,6.93.45,8.29h0l2.78.05,1.56.54c3.11,2.09,6.61.84,9.93,1.13,2.27.71,4.53.33,6.79,0h0l3.26-.09h0c3.14,0,6.44.57,8.87-2.23l1.8-3.24a2.9,2.9,0,0,0,1-2.15h0a5.21,5.21,0,0,0,.58-3.4l0,0c.86-1.34.5-2.69,0-4a.4.4,0,0,0-.05-.43c-.71-2.5-1-5.14-2.73-7.27a3.93,3.93,0,0,0-.61-2.11h0a110.29,110.29,0,0,1-.43-13.23l-.25-.19h0a2.43,2.43,0,0,0,.25.2c1.59-1.49.92-3.55.91-5.19-.06-10.15,2.38-20,3.62-30,.73-5.88,1.71-11.75,2.51-17.64.25-.67.51-1.35.77-2h0q1.29-2.26,2.6-4.53h0a2.41,2.41,0,0,0,.3-1.43c.8-2.28,3-2.25,5.36-1.92a28.31,28.31,0,0,0,3.57,0,.77.77,0,0,0,.28.15c1.37.69,2.87.33,4.3.32,1.88,0,3.38.08,2.6,2.65a1.24,1.24,0,0,0,.72,1.37h0c1.33,2.56,1.95,5.47,3.91,7.71,1.8,1-.26,3.46,1.66,4.43h0l.48,2.21h0l.15,2.67c.68,3,.2,6.26,2.2,8.91,1,.73.2,2.06,1,2.87,1,4.55.28,9.16.57,13.74h0c-.93,1.39-.59,2.94-.55,4.45h0l-.55,4.35h0c-1.55,2.5-4.16,4.25-5,7.22h0c-2.11,2.14-2.12,5-2.78,7.69h0c-1.92,1.37-1.35,3-.45,4.64l.44.56h0c.83,1.2,2.15,1,3.34,1.17h0c1.52,1.24,3.34.92,5.09,1,3.47,1.11,7,.43,10.55.5a28.84,28.84,0,0,0,6.41-.86,3.45,3.45,0,0,0,.94-.21c.57.08,1.15.18,1.56-.38h0c1.73-.42,3.54-.63,5-1.76h0a2.75,2.75,0,0,0,2.14-1.74h0l1-1.19h0c2-1.11.55-2.84.77-4.27h0c-.56-3.33,1.11-6.84-.74-10.08-1-1.32-.11-3.23-1.34-4.5h0a102,102,0,0,1-.69-20.37h0c.9-1.15.46-2.64,1-3.88,1-2.87,2.33-5.65,2.29-8.77,0-.9.63-1.23,1.06-1.77h0c1-.71.48-1.42,0-2.13h0c.58-.88,1.3-1.69,1.12-2.86.87-1.57.07-3.65,1.53-5h0a3.75,3.75,0,0,0,2.21-3.36c1.45-.9.86-3.31,2.83-3.82l2.23,2.78a13.34,13.34,0,0,0,2.74,4.46,3.61,3.61,0,0,0,1.48,1.7,50.14,50.14,0,0,1,4.09,7.65h0l.49.61c.48,1,.2,2.33,1.19,3.16h0c.37.6.75,1.19,1.13,1.78h0c1.13,3.48,2.34,6.91,5.22,9.44,1.34,1.17,1.67,3,2.44,4.48h0c0,.77-.28,1.61.43,2.25h0a36.74,36.74,0,0,0,2.4,7.66c2.17,4.33,1.27,8.85,0,13.29a.34.34,0,0,0-.08.41h0a24.33,24.33,0,0,0-5.45,8.44c-.18.42-.37.83-.56,1.24h0a2.14,2.14,0,0,0-.1.22c-1,2.36-.54,5.05-1.54,7.42l1.14,2.63h0c1.85,2.22,4.34,1,6.57,1.24h0l2.19.62h0a2.8,2.8,0,0,0,2.54.64c4.14-.48,8.34.05,12.46-.68l5-.54h0c3-.33,6.1-.19,8.26-2.86h0l.57-.52h0c1.61-1.19,1.61-2.71,1.23-4.55-.53-2.51-.19-5.17-1.22-7.62l-.48-.58h0a23.16,23.16,0,0,0-2.28-7.75h0c-.17-.73-.35-1.46-.52-2.19-.4-2.57-.79-5.13-1.19-7.7h0c-1-1.59,1-3.49-.53-5a5.92,5.92,0,0,0-.92-4.17.78.78,0,0,0-.2-.27L645.07,328h0c-.13-.71.09-1.52-.58-2.08a121.91,121.91,0,0,1-.55-17.51,42.61,42.61,0,0,1,.53-4.63h0a9.44,9.44,0,0,1,.57-6,.67.67,0,0,0,.14-.33c1.78-4.18,4.19-8.17,3.81-13a7.27,7.27,0,0,0-.62-3.44V278.9a20.44,20.44,0,0,1,1-8.32h0c-.15-.36-.29-.72-.43-1.08h0a34.72,34.72,0,0,0-.52-10.12h0c.15-.34.72-.63.1-1h0c.14-.49.55-.5.94-.54h0l1.63,2.27c.27.62.32,1.36,1,1.77l.06-.06h0l0,0h0a2.64,2.64,0,0,0,1.1,1.59h0c.2,1.19.26,2.47,1.71,2.94h0a.24.24,0,0,0,.09.34,3.06,3.06,0,0,0,.93,1.8h0c.73,1.09,1.19,2.39,2.39,3.13l.57,1.16h0A3.08,3.08,0,0,0,660,275h0c.72.93,1.44,1.87,2.17,2.8a4.74,4.74,0,0,0,2.26,2.73h0l.52.58a4.19,4.19,0,0,0,2.12,3.37c2.44,3,4.47,6.4,8.38,7.8,2.87,1.84,5.13,4.38,7.66,6.61h0c1.31,2.34,3,4,5.84,4a.87.87,0,0,0,.5,0l.5.39h0a2.09,2.09,0,0,0,2.08,1.32h0c.45.71,1,1.47,1.93,1s.34-1.33.09-2.08c-.52-1.52-1-3.08-1.41-4.62L691,296l0,0h0c-.21-1.12,0-2.4-1.22-3.14l-.88-.79h0c-2.86-2-6.35-2.25-9.55-3.3h0c-1.9-1.4-4-2.58-4.89-5l-3-3.78h0c-1.18-2-1.81-4.29-3.3-6.12a.54.54,0,0,0-.43-.06h0l-1.17-1.63h0L661.06,259a21.49,21.49,0,0,1-2.65-6.45,10,10,0,0,0-1.65-3.62h0c-.73-.8-.62-2.13-1.71-2.69a13,13,0,0,0-2.34-4.24c-1.56-3.52-4.25-6.43-5.5-10.12-.26-1.77-1.45-2.91-2.69-4h0a1.73,1.73,0,0,0-1-1.62h0a30.72,30.72,0,0,0-5-6.16h0a12.76,12.76,0,0,0-5-4.9,6.94,6.94,0,0,0-2.9-3.23l-.5-.58-.62-.53h0c-1.75-2.54-4.46-4.06-6.55-6.24h0c-.92-1.11-1.78-2.29-3.25-2.74a1.63,1.63,0,0,0-.18-.43h0a3.64,3.64,0,0,0-1.61-1.7h0a3.43,3.43,0,0,0-2.11-1.71h0l-1.24-1h0a30.48,30.48,0,0,0-7.71-6.74,6.56,6.56,0,0,0-2.29-2.12h0c-.5-.75-1.37-.93-2.11-1.3l-.49-.44h0a8.17,8.17,0,0,0-4.55-2.18l-1.22-1.05h0l-.45-.59h0a16.08,16.08,0,0,0-5.53-2.77l-1-.05h0a7.94,7.94,0,0,0-4-1.13l-2.25-1h0c-3.58-1.25-7.38-.9-11.06-1.33-1.82-.22-4.22-.65-6.08.75a13.18,13.18,0,0,0-8.31,1.69c-2.08.68-4.28,1.05-6.22,2.14h0c-1.87.59-2.26-.19-2.21-2,.06-2.49.68-5.13-1-7.41-.36-.95-.72-1.91-1.07-2.86h0a1,1,0,0,0-.44-1A33.25,33.25,0,0,0,540.94,157h0a4.79,4.79,0,0,0-1.66-2.72c-2.66-1.73-3.76-5.06-6.69-6.51h0a.74.74,0,0,0-.5-.12h0a4,4,0,0,0-2.68-1.13h0c-2.07-.92-4.15-.35-6.23,0-6.08,1-12.17.49-18.25.06-4.47-.6-8.93-.85-13.33.47h0a4,4,0,0,0-3,1.06c-1.32,1.37-3.2,1.12-4.77,1.75l-1.58,0h0l-2.16-.56h0c-2.26-1.22-4.73-1.18-7.19-1.13-5.25-1.83-10.68-1.08-16-.78-1.77.1-3.39-.46-5.09-.26a5.07,5.07,0,0,0-2.58-.64h0a6.21,6.21,0,0,0-5.13.06l-.54.32h0c-3.13-1.35-4,1.47-5.59,3-1.43,1.19-3.33,1.74-4.5,3.28h0L428,154.63a1.38,1.38,0,0,0-.67.18c-2.7,1.93-5.2.91-7.66-.55h0l-1.53-1.14h0c-1.45-.85-1-2.92-2.42-3.77h0c-.53-1.12-1.06-2.23-1.6-3.35l-1.53-5.6h0c-.06-3.49-.11-7-.17-10.46l.12-.52h0c.4-.4.16-.77,0-1.15l.09-2.1h0c.93-1.19.28-2.62.59-3.91.57-.61,1.2-1.4.61-2.12-1-1.22.13-2,.34-2.93V116.1l.09-2.22h0c0-.94-.2-1.92.49-2.73a1.76,1.76,0,0,0,1-2.3,1.73,1.73,0,0,1,.67-2.16h0a.48.48,0,0,0,.18-.43,13.89,13.89,0,0,0,.9-7.3h0c-.08-.93,1.3-1.84,0-2.79l-.54-.56c.8-2,.21-4,0-6.06h0l-.53-.58c0-.92,0-1.84,0-2.75.42-.36.52-.75.08-1.16l-1.2-1.63a1.37,1.37,0,0,0,0-1.65c-.63-2.44-.41-5.17-2.49-7.1a5.57,5.57,0,0,0-1.38-2.85h0c-.41-.94-1.38-1.19-2.1-1.74h0c-.5-1.77-2.16-2.3-3.45-3.23h0a5.39,5.39,0,0,0-4.43-2.23,9.18,9.18,0,0,0-6.63-2.23,26.17,26.17,0,0,1-6.5-.94c-2.18-.74-3.93.35-5.35,2-.73.86-1.53,1.72-.34,2.82h0c.17.39.35.77.52,1.16l.6,1c-1,6.83,2,8.54,8.9,5.58h0a3.48,3.48,0,0,1,3.68,1.83,2.43,2.43,0,0,0,.15.26l0,0h0c1.16,1.06.73,2.78,1.63,3.95h0l.57,1.09h0c0,.37,0,.74,0,1.11h0a2.08,2.08,0,0,0,.45,2.27l.54,1.1h0v1h0a1.09,1.09,0,0,0-.47,1.14h0c0,.19,0,.38.05.57h0c0,.92,0,1.84,0,2.76a7.6,7.6,0,0,1,0,4.43h0c0,1-.88,1.75-.55,2.78A3.7,3.7,0,0,0,398,101c-1.13,1.52-2.29,3-2.24,5.07-.62.64-1.48,1.09-1.67,2.08l0,.1-.94,2.83h0a2.5,2.5,0,0,0-.63,2.11h0c-.4.75-1.14,1.35-1.12,2.3h0l-1.11,3.17a6.75,6.75,0,0,0-1.12,3.87h0a22.81,22.81,0,0,0-1,6.81h0l0,1.65c0,2.36,0,4.71,0,7.07h0c-.4.74-1,1.45-.57,2.38,0,.36,0,.72,0,1.07h0c-.27,3.49-.46,7,1.64,10.07h0c0,.53.08,1.05.13,1.57a5.2,5.2,0,0,0,.59,2.77c.46,1.5.29,3.32,2.12,4.11-.17,1.52.83,2.55,1.53,3.71a.78.78,0,0,1,0,.43c-1.31,3.1.87,5.07,2.36,7.26h0c1.12,3.59,3.89,6,6.09,8.86.26,1.72-.63,2.28-2.2,2.8a36,36,0,0,1-12.91,1.64,1.65,1.65,0,0,0-1.49.53h0c-6.41.52-12.63-.68-18.8-2.24l0,.08s0,0,0,0l0-.05c-.78-.86-1.82-.43-2.75-.56h0a26.3,26.3,0,0,0-6.65-3.3c-2.39-1.44-4.72-3-7.19-4.26a1.45,1.45,0,0,0-2.19,1.29A3,3,0,0,0,348,178.63ZM458,284h0v0l-.09-.09Z" transform="translate(-24.26 -22.82)"/><path d="M744.26,417.16l2.38-.15a1.7,1.7,0,0,1,0-.22,9,9,0,0,1-2.59-.34h0c-.36,0-.59-.07-.59-.49a4.79,4.79,0,0,1,.32-1.49h0a.59.59,0,0,1,.39-.63h0a4.53,4.53,0,0,1,1.81-2.15c.94-.69,1.92-1.31,2.91-1.93a24.52,24.52,0,0,0,3.52-2.44,84.54,84.54,0,0,0,6.38-6.18h0a.88.88,0,0,1,.66-.65h0l3-3a4.28,4.28,0,0,1,1.14-1.29,21,21,0,0,0,3.32-3.78c1.39-1.91,2.83-3.78,4.26-5.66l1.62-2.49a1.38,1.38,0,0,1,.64-1h0c.68-.93,1.36-1.87,2.06-2.79a9.65,9.65,0,0,1,6.33-3.85l5.91-1h0a7.5,7.5,0,0,1,2.5-1h0a5.64,5.64,0,0,1,.69-.36q3.12-1.1,6.27-2.16c1.94-.65,3.9-1.27,5.85-1.91.27-.39.66-.34,1-.27h0c2.81-.76,5.59-1.61,8.32-2.62a31.57,31.57,0,0,1,4.25-1.3q5.12-1.1,10.25-2.15a7.3,7.3,0,0,1,.94-.07,12,12,0,0,1,3.46-.65,2,2,0,0,1,1.38-.26,2.88,2.88,0,0,1,.59-.23,25.36,25.36,0,0,0,6.9-2.3,30.8,30.8,0,0,1,4-1.51,18.91,18.91,0,0,1,4.67-.82,17.32,17.32,0,0,1,5.17.72h0a4,4,0,0,1,1.93.61l1.88.66c.37.07.38.54.71.65a2.07,2.07,0,0,1,1.66.35,13,13,0,0,0,3.17,1c.88.16,1.76.35,2.64.54a21.93,21.93,0,0,1,4,1.06,3.68,3.68,0,0,1,2.28,4.51c-.18.71-.47,1.4-.71,2.1a1,1,0,0,1-.78.69c-.92.27-1.81.6-2.71.91.15.24.41.25.64.29h.61a.24.24,0,0,1,.25-.06.71.71,0,0,1,.71-.24h0l.32-.05c.05-.13.17-.17.22-.07a.34.34,0,0,1-.17.5h0a.19.19,0,0,1-.07.22.66.66,0,0,1-.28.65.78.78,0,0,1,0,.16c-.16.81-.22.81-1.26.8-.27.27-.65.19-1,.33a.82.82,0,0,0,.68.31h0c.26,0,.51,0,.77,0s.42.25.36.54a1.93,1.93,0,0,1-.2.41h0c0,.53,0,1.06,0,1.59a3.67,3.67,0,0,0,1,2.44c.21.23.44.45.66.67a5.47,5.47,0,0,0,5.18.11,18.29,18.29,0,0,0,2.11-1.09c.9-.55,1.77-1.16,2.62-1.79q2.1-1.56,4.15-3.19a12.45,12.45,0,0,1,6.28-2.82c.21,0,.42-.07.63-.11-.13-.6-.13-.6.39-.62l.29,0c1.4,0,2.81,0,4.22,0,.4,0,.84-.08,1.16.29.65.05,1.35-.18,1.92.33l1.18.07h0a2.6,2.6,0,0,1,2.32,1.19h0a15,15,0,0,1,3.39,2.05,10.38,10.38,0,0,0,2.92,1.6,5.62,5.62,0,0,0,5.68-.89c.42-.32.83-.66,1.22-1a6.41,6.41,0,0,1,4.22-1.62c1.53,0,3.07,0,4.61,0a12.15,12.15,0,0,1,3.58.64,29.77,29.77,0,0,1,7.43,3.57,13.5,13.5,0,0,0,6,2.45,4.27,4.27,0,0,0,1.71-.07h0c.14-.21.27-.42.4-.64h0a2.89,2.89,0,0,0,.32-1.35,1,1,0,0,1,.29-.86h0a9,9,0,0,0,.16-3.63,28.76,28.76,0,0,1-.48-4.91,6,6,0,0,1,1.32-3.67,10.92,10.92,0,0,1,3.1-2.72l.72-.37a.35.35,0,0,1,.32-.31h0c.7-.14,1.27-.69,2.07-.64l.5,1.57h0c.38-.24.22-.65.32-1h0c0-1,.12-1.16,1-1.18a12.71,12.71,0,0,1,1.74.11c1.72.26,3.43.55,5.15.83h0a.93.93,0,0,1,1,.25,4.94,4.94,0,0,0,1.56.37c.43-.06.74.21,1.09.36h0c1.74.48,3.46,1,5.21,1.43a45.52,45.52,0,0,0,8.28,1.42h0c.37.11.41.4.44.72,0,.49-.17,1,.28,1.46,0-.53,0-1.05.08-1.57a.51.51,0,0,1,.49-.51,1.34,1.34,0,0,1,1.05.18l.74-.28h0a8.48,8.48,0,0,0,2.17-.46,5.27,5.27,0,0,1,1.23-.25c2.06-.09,4.12-.21,6.18-.29a17.48,17.48,0,0,1,5.19.55l5.2,1.38h0a.59.59,0,0,1,.68.62c.06.53-.21,1.11.26,1.58h0c.08-.41.16-.82.25-1.22a.44.44,0,0,1,.57-.37l2.71.66c.45,0,.94-.15,1.29.29a27.68,27.68,0,0,0,3.83.68,6.55,6.55,0,0,1,2.53.22l.09,0a29.9,29.9,0,0,1,6.93.87c1.81.43,3.59,1,5.38,1.43h0a3,3,0,0,1,1.64.58h0c.58.38,1.32.42,1.85.89l.43.45a1.22,1.22,0,0,1,1.07.08c.52.27,1,.53,1.54.82a114.1,114.1,0,0,1,14,9.73c2.63,2.08,5.07,4.36,7.55,6.59.32.08.38.32.4.6h0c.34.19.77.26.92.7h0c1.11,1.2,2.25,2.37,3.33,3.59a23,23,0,0,1,3.12,4.17,21.38,21.38,0,0,0,5.26,6.25,3.46,3.46,0,0,1,0,.39c.07-.08,0-.23,0-.39a6.79,6.79,0,0,1,1.67,1.63h0c.72,1,1.78,1.77,2.36,2.89-.33.26-.67.08-1,.18h0c-.44.16-1-.11-1.35.34h0a5.77,5.77,0,0,0,1.57.25c1.36-.15,2,.64,2.55,1.69.28.57.57,1.13.84,1.71a1.83,1.83,0,0,1-.09,1.81c-.39.69-.74,1.41-1.08,2.13a4.14,4.14,0,0,0-.13,3.24c.16.45.3.91.48,1.35a6.24,6.24,0,0,1,.31,2.35.67.67,0,0,1-.32.67,4.3,4.3,0,0,0-2.27,3.59h0c.17.62-.18,1.12-.33,1.67h0a2.86,2.86,0,0,1-2.16,2.51l-.92.34c-.5.44-.54,1.12-.83,1.67a13.47,13.47,0,0,0-1.52,4.14,3.64,3.64,0,0,1-1.52,2.34c-.38.29-.79.52-1.16.83a2.32,2.32,0,0,1-3,.3s-.09,0-.13,0a3.25,3.25,0,0,0,.85,2.4,3.55,3.55,0,0,1,.69,2.83,8.68,8.68,0,0,1-1.73,3.86c-.16.43-.59.51-.92.7l-1,1.24a.38.38,0,0,1-.31.35l-.56.29a2.88,2.88,0,0,1-2.87-.07l-1.25-.67a6.94,6.94,0,0,0-2.09-.69.75.75,0,0,0-.91.43h0c.12.57-.48.72-.66,1.12h0a2.5,2.5,0,0,0,.53,1.14,6.94,6.94,0,0,1,1,2.3,4.3,4.3,0,0,1-2,5.16,2.07,2.07,0,0,0-1.18,1.56,10.54,10.54,0,0,1-.28,1.07,4.66,4.66,0,0,1-3.28,3.16c-.34.12-.48-.07-.59-.34s-.14-.29-.21-.43c-.28.15-.28.43-.34.69h0c-.07.19-.14.41-.37.47a2.48,2.48,0,0,1-1.52.12l-.72.27h0a2.4,2.4,0,0,0-1.71.74,11.87,11.87,0,0,0-1.21,1.25,1.49,1.49,0,0,1-1.68.58,3.19,3.19,0,0,1-1.06-.3,1.94,1.94,0,0,0-2.23.15,3.11,3.11,0,0,0-1.73,2.32c-.06.32-.13.63-.19.94a4.79,4.79,0,0,1-1.12,2.25,9.87,9.87,0,0,1-2.07,2h0a2,2,0,0,1-.89,1h0c-.14.15-.26.31-.4.44s-.44.21-.59-.1l-.36-.65-.37.39h0a4.5,4.5,0,0,0,.24.76,2.15,2.15,0,0,1-.18,2.25c-.37.58-.77,1.14-1.16,1.71s-.79.77-1.45.52a4.44,4.44,0,0,1-2.32-1.85,26.36,26.36,0,0,0-2.95-3.93,3.85,3.85,0,0,1-1-2.09l-.64-.64c-.62,0-1.29.13-1.63-.61l-.29.3h0c0,.55.41,1,.35,1.56h0c.29.3.24.68.27,1.05a17.11,17.11,0,0,0,.23,1.89,17.4,17.4,0,0,0,3.91,7.88,2.11,2.11,0,0,1,.31.36c.28.49.08,1.42-.36,1.53-.71.17-1.46.36-2-.37a3.16,3.16,0,0,0-2-1.17c-.15.55,0,.73.59.95.28-.3.48-.1.61.14a.29.29,0,0,1-.21.47h0l-.44,0h0c0,.11,0,.22,0,.33h0a10.16,10.16,0,0,1,1.38,3.19c.2.93.43,1.86.64,2.79s.23,1-.7,1.63h0a.6.6,0,0,1-.72.29h-.49a2.13,2.13,0,0,1-1.34.36h0a5.87,5.87,0,0,1-1.14.53,1.63,1.63,0,0,0-1.3,1.86c0,.52.06,1.05.09,1.57a3.62,3.62,0,0,1-2.85,4c-.46.12-.93.21-1.39.33a5.28,5.28,0,0,0-2.74,1.48,3,3,0,0,1-1.19.75c-.26.39-.65.32-1,.29h0c-1.16.13-1.16.13-1.6-.84a3.18,3.18,0,0,0-.23-.4c-.28.14-.29.42-.34.67h0c.22,1,.22,1-.59,1.23-.65.21-1.29.46-1.94.7a6.49,6.49,0,0,1-.74.26.41.41,0,0,1-.52-.24c-.11-.3-.17-.62-.25-.93s-.21-.54-.48-.58c-.64-.07-.9-.64-1.44-1.17-.06.5-.11.8-.12,1.09a6.34,6.34,0,0,1-.32,1.88,7,7,0,0,0-.35,1.87,5.36,5.36,0,0,1-3.35,4.82c-.25.1-.48.23-.72.35-.33.38-.65.32-1,0h-.31l-1,.93h0a15.14,15.14,0,0,1,0,4.09,3.39,3.39,0,0,1-2.39,3.19c-.35.12-.69.27-1,.39L978.42,529c-.08.07-.16.18-.24.19a23.31,23.31,0,0,1-4.94,0A.66.66,0,0,1,973,529a.84.84,0,0,1-.63-.36l-2.55-1.27-.62,0-1.62.28a.25.25,0,0,1-.26.07h0a4,4,0,0,1-.54.29c-.78.29-1,.24-1.47-.39a8.24,8.24,0,0,1-.69-1.23,9.47,9.47,0,0,0-4.18-4.59,3.81,3.81,0,0,1-1.9-2.41c-.13-.41-.26-.81-.35-1.22a6.72,6.72,0,0,0-1.42-2.94h0a.78.78,0,0,1-.25-.7c0-1.56-1.6.35-1.93.35h0l-.44.46a37,37,0,0,0,.53,5.66c.16,1.15.34,2.29.52,3.43h0a7.86,7.86,0,0,1,.59,2.62h0c.28,1,.58,2,.86,3.05a104.55,104.55,0,0,1,3.23,17.17c.4,4,.73,8,1.13,12,.41,4.23.6,8.47.8,12.71a138.61,138.61,0,0,1-1,19.85,21.87,21.87,0,0,1-.87,4.36,2.93,2.93,0,0,1-.3,1.59h0a2.46,2.46,0,0,1,0,.47c-.56,2.83-1.13,5.66-1.92,8.45.11.66-.34,1.21-.35,1.85h0a.37.37,0,0,1-.28.39l-.11.12,0,0a.83.83,0,0,1,.09-.16.28.28,0,0,0,0,.25h0a6.47,6.47,0,0,1-.86,2.64c-.18.45-.18,1-.69,1.25,0,0-.05,0-.09.09a.22.22,0,0,0,0,.08l.1-.17a.77.77,0,0,1,0,.3.61.61,0,0,1-.29.66c0,.17-.06.35-.29.34a1.61,1.61,0,0,1-.21.86c-.63,1.43-2.31,4.62-2.4,4.84h0l-.3.64s-3,5.69-3.9,6.6c.11-1.19,3.62-14.91,4-16.78a2.29,2.29,0,0,1,.25-1.66h0a.23.23,0,0,1,0-.26,5.21,5.21,0,0,1,0-.79c.38-2.15.32-4.34.52-6.5.14-1.48-.07-10.29.15-11.27h0c0-1.49,0-3-.15-4.45q-.69-8.32-1.75-16.6a104,104,0,0,0-3.69-17.38,36.84,36.84,0,0,1-1.58-7,27.31,27.31,0,0,0-.6-3.6c-1.05-4.27-2.63-8.38-3.82-12.61a.63.63,0,0,0-.55-.5,4.07,4.07,0,0,0-1.92.65h0a5.52,5.52,0,0,0-1.9,2.3,13.52,13.52,0,0,0-1,2.84,37.63,37.63,0,0,0-.86,6.93c-.44,5.76-.7,11.53-1.7,17.24a2.53,2.53,0,0,1-.25,1.64c-.22,1.73-.42,3.47-.66,5.2q-.72,5.28-1.46,10.55c-.52,3.73-1.14,7.44-1.47,11.2-.05.47-.18.93-.27,1.4a31.87,31.87,0,0,1-.32,4.25c-.12,2.31-.27,4.63-.43,6.94,0,.63-.15,1.25-.22,1.88a.29.29,0,0,1,0,.3l0,.66h0c0,1.38,0,2.76-.15,4.13a1.87,1.87,0,0,1-.13.77c0,.37.06.74,0,1.1-.21,7.52.13,15,.13,22.54,0,1.86.06,3.71.08,5.56,0,.53.08,1.06.09,1.58,0,2.66-.06,5.32.08,8a131.34,131.34,0,0,1-.25,17.18c-.37,4.65-.76,9.31-1.12,14s-.76,9.52-1.25,14.27c-.55,5.39-1.27,10.75-2.3,16.07a85.13,85.13,0,0,1-3.5,13.21,8.7,8.7,0,0,1-.94,2.17,16.3,16.3,0,0,1-1.34,3.13.6.6,0,0,1-.3.68l-1,1.83h0a.85.85,0,0,1-.49.74h0a8.69,8.69,0,0,1-1.42,1.88,11.72,11.72,0,0,1-2.47,2.92.89.89,0,0,1-.69.57l-.13.06h-.13a5,5,0,0,1-2.57,1.57h0a.59.59,0,0,1-.63.28l-.32,0h0a5.71,5.71,0,0,1-3.51.6h0a6.13,6.13,0,0,1-2.89-.57h0a1.23,1.23,0,0,1-.94-.35l0-.06h0l0,.07a.83.83,0,0,1-.66-.31c-.34,0-.7,0-.95-.28l-.22-.1h0c-.32-.07-.37-.32-.4-.59a10.2,10.2,0,0,1-5.41-6.37,5.1,5.1,0,0,1-.32-.72,22,22,0,0,1-.79-4.19,39.19,39.19,0,0,1-.53-5.18,2.89,2.89,0,0,1-.25-1.39c0-.52,0-1.05,0-1.58s-.13-.9.16-1.31c.79.55,1,1.47,1.77,1.92.24,0,.49,0,.61-.3l-.36-.58h0a4.57,4.57,0,0,1-1.26-2,2.63,2.63,0,0,1,.22-3.1,5.39,5.39,0,0,1,4.26-2.27h0l2.37.23a1.52,1.52,0,0,1,.89.28l3.09.72.67.28a1.69,1.69,0,0,0,1.23-1.79,6.18,6.18,0,0,1,.05-1c.15-2.06.29-4.13.45-6.19.28-3.65.41-7.31.33-11-.13-6.16-.38-12.31-.8-18.45-.22-3.28-.58-6.55-1.12-9.8-.68-4-1.63-8-2.58-12q-.86-3.56-1.73-7.11a6.54,6.54,0,0,1-.61-2.26c-.17-.55-.37-1.1-.5-1.66-.48-2.1-1.16-4.16-1.43-6.3a16.14,16.14,0,0,1-1-5.05,13.43,13.43,0,0,1-.71-3.07c-.33-1.49-.57-3-.83-4.51-.05-.28-.16-.64.28-.75v0h0a2.94,2.94,0,0,1-.7-1.5c-.39-1.83-.82-3.66-1.23-5.49h0a1.3,1.3,0,0,1-.26-1.32h0a18.3,18.3,0,0,1-.74-3.42h0c-.32-.33-.26-.79-.38-1.19-.32-1.06-.61-2.13-.91-3.19-.12-.4.12-.44.41-.44h0l0,0v0a4.91,4.91,0,0,1-.9-1.23,27.74,27.74,0,0,1-1.35-4.47,1.16,1.16,0,0,1-.31-1l0-.05a1.76,1.76,0,0,1-.33-1.22,4.67,4.67,0,0,1-.26-.56,58.29,58.29,0,0,1-1.57-7.4,18.59,18.59,0,0,1-.38-4.71h0a18.24,18.24,0,0,1-.33-4.55,3.11,3.11,0,0,1-.2-1.54c0-1.53,0-3.06-.09-4.59a31.35,31.35,0,0,0-1.29-8.1c-.5-1.61-1-3.2-1.54-4.81a4.26,4.26,0,0,1-.39-1.68,2.72,2.72,0,0,1-.23-.57c-.33-2-.69-3.95-1-5.93a20,20,0,0,1-.42-3.93h0a21.45,21.45,0,0,1-.57-4.07c-.16-1.84-.24-3.69-.37-5.54-.08-1.16-.22-2.32-.28-3.48a21,21,0,0,0-.67-4.54h-.31v.85h0a.36.36,0,0,1,0,.09c-.21.32-.5.26-.81.11l0-.05h0l0-.07v0h0c-.08,0-.22-.07-.24-.12s.1-.24.24-.28h0a.24.24,0,0,1,0-.28,1.27,1.27,0,0,1-.06-.28H876a.73.73,0,0,1-.25,1h0c-.52,1.27-1.06,2.54-1.57,3.82a19,19,0,0,1-1.18,2.6,28.31,28.31,0,0,0-3,7.84c-1.52,6.82-3.16,13.63-4.36,20.53a56.94,56.94,0,0,0-.94,9.49c0,1.48-.11,3-.22,4.45-.26,3.49-.3,7-.23,10.49,0,1.7.25,3.39.39,5.08h0a3.48,3.48,0,0,1,.25,2l.06.58h0a2.78,2.78,0,0,1,.21.59c.24,2,2.35,10.58,2.35,10.58.22.18,1.27,5.27.93,6.15,0,.1,0,.21-.05.31h0l.72,3.06a10.24,10.24,0,0,1,.93,2.9l0,.06a5.06,5.06,0,0,1,.6,2.86h0a3.62,3.62,0,0,1,.66,2.12,7.8,7.8,0,0,1,.61,2.32,1.57,1.57,0,0,1,.26,1.31h0c.11.5.48,1,.22,1.51-.59-.15-.85-.63-1.12-1.08-.46-.78-4.42-9.07-4.42-9.07h0c.08,0-2.42-8.63-2.59-9.87a44.38,44.38,0,0,1-1.66-6.31c-.18-.09-.45-.08-.5-.32-.1-.46-.47-.84-.39-1.35a2.64,2.64,0,0,1-.34-1.26,13.64,13.64,0,0,1-1-3.14,1.31,1.31,0,0,1-.33-.7c-.6-2-1.22-4-1.82-6.06a3.28,3.28,0,0,1,0-.63c-.11-.35-.25-.7-.34-1.06a80.4,80.4,0,0,1-2-12.55,140.69,140.69,0,0,1-.13-19.26c.09-1.54.2-3.07.35-4.6q.39-4.2.85-8.4c.29-2.64.62-5.27,1.11-7.88a105.08,105.08,0,0,1,4-14.23c.28-.8.55-1.6.76-2.42a4.53,4.53,0,0,0-.09-2.82.78.78,0,0,0,0-.14l0,.14a.78.78,0,0,0-.86-.73c-.16,0-.31,0-.47,0h0a.93.93,0,0,1-.29,0,1.67,1.67,0,0,0-.37.86c-.1.58-.2,1.15-.33,1.72a2.06,2.06,0,0,1-1.39,1.6c-.25.08-.49.19-.75.27a2.93,2.93,0,0,0-1.94,1.53c-.45,1-1.35,1.92-1,3.24a2.09,2.09,0,0,1-1,2.32,6.72,6.72,0,0,1-2.11,1.09c-.55.18-1.12.31-1.68.46h0c-.46.53-.88.13-1.31-.06h0a5.31,5.31,0,0,1-3-3.24c0-.09-.14-.15-.21-.23h-.9a2,2,0,0,0-1.92.84,1.53,1.53,0,0,1-2.46.09c-.3-.3-.55-.65-.82-1a3.85,3.85,0,0,0-3.77-1.56l-1.57.23a9.82,9.82,0,0,1-2.54.11.94.94,0,0,1-1-1.05c0-.37,0-.74,0-1.11h0l-.37-.39a.66.66,0,0,1-.65-.32,1.85,1.85,0,0,0-.83-.68c-.05-.15-.1-.31-.14-.46h0a2.59,2.59,0,0,0,.14.45c-.36-.1-.42-.38-.45-.71,0-.49.2-1-.27-1.46,0,.26-.07.53-.11.79-.14.72-.14.74-.86.87a5.72,5.72,0,0,0-1.92.72,4.33,4.33,0,0,1-1,.45,1,1,0,0,1-1.28-.65,8,8,0,0,1-.34-4.06,10.16,10.16,0,0,1,1.64-3.23,31.58,31.58,0,0,0,2.07-3,7.67,7.67,0,0,0,.81-4.77.28.28,0,0,0-.46-.21,8.33,8.33,0,0,0-1,.7,23.29,23.29,0,0,0-3.16,3.12c-1.73,2-1.5,2.17-4.46,1.66a3.87,3.87,0,0,1-2-.88,3.62,3.62,0,0,0-1.16-.81h0c-.08.06-.18.1-.22.18-.29.58-.29.58-.87.28h0l-.31-.29v-.23l-.1-.05c-.24-.09-.47-.21-.7-.32a.28.28,0,0,1-.13.17c-.32-.18-.64-.35-1-.55a.28.28,0,0,1-.12-.24c.07-.17.25-.15.4-.14h0l.35,0h0l-.34-.68h0a12.18,12.18,0,0,1-2.84-1.88,1.63,1.63,0,0,1-1-1h0c-.26-.4-.54-.78-.77-1.19a3.63,3.63,0,0,1-.22-3.62c.28-.56.48-1.17.75-1.74a2.88,2.88,0,0,0,.18-2,.75.75,0,0,1-.29-.09h0a1.94,1.94,0,0,0-1.82.74c-.63.72-1.28,1.41-1.93,2.12a2.14,2.14,0,0,1-3.38-.44c-.54-1.09-1.08-2.18-1.52-3.32a32.4,32.4,0,0,0-1.61-3.79l-2.79-3.88-1.33-1.2a2.62,2.62,0,0,0-.28.3c-.13.17-.22.12-.31,0h0a.6.6,0,0,1-.64-.26h0a1.42,1.42,0,0,1-1-.34h0l-.88-.1h0a.84.84,0,0,1-.27,0s-.09-.1-.13-.16a.75.75,0,0,1,.12-.07l.28,0,0-.05h0c-.15-.28-.46-.28-.71-.38h0c-.53.06-1.06.1-1.58.18a4.2,4.2,0,0,1-1.58-.05c-.34-.07-.6-.19-.61-.59a4.32,4.32,0,0,0-.79-2.22,10.25,10.25,0,0,1-.93-2,25.14,25.14,0,0,0-1.84-4.06,3.29,3.29,0,0,1-.5-1.65,1.62,1.62,0,0,0-.38-1.33c-.35-.2-.82-.26-.9-.77h0c-.25-.36-.49-.72-.73-1.09-1.1-.82-2.17-1.7-3.31-2.45a4.59,4.59,0,0,1-2.33-3.39c-.39-2.69-1.87-3.18-3.84-3.09-1.06.05-2.12.15-3.18.23a1.65,1.65,0,0,1-1.66-.58,1,1,0,0,1-.42-.57h0a21.31,21.31,0,0,1-3-5.18,5,5,0,0,1,.12-3.87,15.79,15.79,0,0,1,.92-1.84c.44-.72,1-1.4,1.42-2.11s1-1.49,1.47-2.26a5.27,5.27,0,0,0,.72-1.75.75.75,0,0,0-.79-.93,1.21,1.21,0,0,0-.47,0c-1.3.59-2.71.32-4.07.53a19.23,19.23,0,0,1-2.85.16,6.7,6.7,0,0,1-4.85-2,8,8,0,0,1-2.51-3.53.41.41,0,0,1-.29-.39,46.66,46.66,0,0,1-2.49-6.18,43.51,43.51,0,0,0-3-7c-.43-.78-.83-1.59-1.2-2.41a12,12,0,0,1-1.07-4.29C743.39,417.29,743.46,417.21,744.26,417.16Z" transform="translate(-24.26 -22.82)"/><path d="M494.05,537.39a1.29,1.29,0,0,0,.14.9.09.09,0,0,0,0,.12,1.37,1.37,0,0,0,.31.72.12.12,0,0,0,0,.13,1,1,0,0,0,.11.66l0,.05,0,.32a7,7,0,0,0,.82,2.4,1.58,1.58,0,0,0,.19.85,10.39,10.39,0,0,0,.9,2.52,39.25,39.25,0,0,0,1.67,4,.89.89,0,0,0,.32.53,13.56,13.56,0,0,0,1.15,2.4l.73,1.19a2.19,2.19,0,0,0,.55,1.18c.63,1,1.19,2.09,1.91,3a11.84,11.84,0,0,0,1.86,2.58l.63.88a4.41,4.41,0,0,0,.84,1.26c1,.81,1.4,2.2,2.57,2.88l.17.15a5.24,5.24,0,0,0,1.51,1.7,44.38,44.38,0,0,0,4.23,3.76,1.57,1.57,0,0,0,.94.49l.32.18a3.69,3.69,0,0,0,1.73,1.36,2.2,2.2,0,0,0,.85.52,3.83,3.83,0,0,0,1.55,1l1,.64c.52.27.84.86,1.48.93l1.08.65a3.27,3.27,0,0,0,1.14.73l1.26.62a5.29,5.29,0,0,0,1.7.88l1,.49a5.26,5.26,0,0,0,1.69.76l.54.24c.58.19,1,.68,1.68.74a3.56,3.56,0,0,0,1.22.47l-6.93,7.06c-.23.24-.12.78.28.74a37.68,37.68,0,0,0,16.21-5.42h.16l.82.07a.63.63,0,0,0,.26,0,18.57,18.57,0,0,0,3.33.29,29.51,29.51,0,0,0,6.44.08,85.65,85.65,0,0,0,12.82-2,1.35,1.35,0,0,0,.3-.14l1.67-.39a11.33,11.33,0,0,1,3.63.1,74.33,74.33,0,0,0,12.92-.16l.65-.07c-.87,1.27-1.78,2.52-2.72,3.73a77,77,0,0,1-35.63,25.47c-.51.18-1.23,1.21,1.17,1.26a53.29,53.29,0,0,0,16.79-2.64,61.27,61.27,0,0,0,25.54-15.62,68,68,0,0,0,9-11.94l.56-.91c.45-.51.88-1,1.32-1.55l2.5-2.43a40.63,40.63,0,0,1,5.66-3.9,78.45,78.45,0,0,1,8.19-3.46,2.48,2.48,0,0,0,1.07-.29l.29-.05c.46.09,1-.35,1.39.14a11.71,11.71,0,0,0,1.86,1.93l.31.27a22.65,22.65,0,0,1,1.38,2.33l.49,1.51a2.68,2.68,0,0,0,.37,1.21,9.26,9.26,0,0,0,2.41,3.9c.23.49.83.69,1,1.23a14.76,14.76,0,0,0,.57,4.07l.18.67c.45,1.52.24,3.1.49,4.64a.49.49,0,0,1,0,.51,4.56,4.56,0,0,0-.21,1.51,6.79,6.79,0,0,0-.09,3.29,15.1,15.1,0,0,0,1.14,4.26l.35,1.19c.27,2.51.8,5,1.26,7.47A82,82,0,0,1,635,625.78a51.9,51.9,0,0,1-5.66,22.81,32.56,32.56,0,0,0-1.71,3.81,26.91,26.91,0,0,0-2.54,8.51,47.49,47.49,0,0,0-.38,6.53c0,.53,0,9.14-1,13.35,0,0-.54,2.4-.92,3.57a8.26,8.26,0,0,0-.48,1.7,7.36,7.36,0,0,0-.48,2.37A14.68,14.68,0,0,0,620,694c0,.31,0,.62,0,.93a6.69,6.69,0,0,0,.27,3.11.42.42,0,0,0,.06.15c.49,1.86,1.88,2.94,3.4,3.89a6.08,6.08,0,0,0,1.69.74,1.47,1.47,0,0,0,.73.29,33.33,33.33,0,0,0,9.57,1.4l-.46-.11a.69.69,0,0,1,.46.11h1.53a24.13,24.13,0,0,0,4.49-.27,1,1,0,0,0,.38-.07,3.23,3.23,0,0,0,1.48-.17,19.8,19.8,0,0,0,6.14-1.54,15.81,15.81,0,0,0,5-2.91,7.36,7.36,0,0,0,1.79-1.86A6.31,6.31,0,0,0,658,694a1.38,1.38,0,0,0,.11-.87v-.53a19,19,0,0,0-.72-5.45c-.29-1.32-.66-2.63-1-3.94a4.25,4.25,0,0,0-.29-1.23l-.33-2c0-.1-1.31-1.45-.88-11.36-.37-1.65,1-3.38,1.28-5,0-.27.07-.55.1-.83.64-2.39,1.55-4.69,2.39-7a95.68,95.68,0,0,0,4.07-11.42c.77-2.57,1.48-5.16,2.22-7.75l0-.34a1.31,1.31,0,0,1,0,.34c.91-2.5,1.81-5,2.72-7.52a26.66,26.66,0,0,0,1.77-6.06c0-.27,0-.58.3-.74,1.49,4.22,3.17,8.36,5,12.45q1,2.57,2,5.13c.63,2.29,1.39,4.55,1.95,6.87a40.24,40.24,0,0,1,.87,13.44c-.31,3.37-.57,6.74-1.11,10.08-.35,2.12-.33,5.7-.72,7.82l-2.86,12.88c-.94,3.18-2.49,6.16-3,9.47-.05.36-.07.73-.1,1.09l0,.1a5.72,5.72,0,0,0-.47,1.45,11.12,11.12,0,0,0-.46,5.66,5.12,5.12,0,0,0,1.65,3.25,10.79,10.79,0,0,0,3.27,2.23,13.82,13.82,0,0,0,3.08,1.34,35.49,35.49,0,0,0,10,1.75,45.73,45.73,0,0,0,7,.24,13.17,13.17,0,0,0,3.19-.24c4.43-.27,8.74-1,12.53-3.55a7.38,7.38,0,0,0,3.33-6.27,24.47,24.47,0,0,0-1.34-7.69A50.49,50.49,0,0,1,712,694.1a2.61,2.61,0,0,1,0-1.18l-.2-7s.89-5.51.83-6c.06-3.11.7-6.16,1-9.24.52-3.21,1-6.42,1.56-9.62a5,5,0,0,0,0-.77c.38-1.64.64-3.29.86-5l.51-1.91c.48-2.38,1-4.77,1.45-7.15.38-1.89.74-3.78,1.1-5.67a.09.09,0,0,0,0-.11,12.12,12.12,0,0,0,.53-2.6h0c.42.09.24.44.27.68a7.48,7.48,0,0,0,.17,1.89,16.61,16.61,0,0,0,.21,3.38,24.45,24.45,0,0,0,.32,4.44.52.52,0,0,0,0,.17c.33,1.52-.31,5.41-.79,10.26a11.78,11.78,0,0,1-.63,2.15c-.11.35-.19.71-.28,1.06-.55,2.33-2.12,4.25-2.67,6.58a7.51,7.51,0,0,0-.36,2c0,.85-.34,1.71.15,2.52a3.38,3.38,0,0,0,1.63,1.74,15.93,15.93,0,0,0,4.32,1.92,28.4,28.4,0,0,0,8,1.37.42.42,0,0,0,.28,0,30.49,30.49,0,0,0,5.57.06,40.52,40.52,0,0,0,6.66-.81c.13,0,.26-.1.39-.14H743l.06,0a8.69,8.69,0,0,0,2.44-.68,6.74,6.74,0,0,0,1.83-.73,3.55,3.55,0,0,0,2-3.33,9.9,9.9,0,0,0-.17-2.77,16,16,0,0,0-.83-3.62l-1-3.78c-1.49-5.84-.59-11.57-.72-12.26v-.19l0-.85c.21-1.54.44-3.08.64-4.62.35-2.73,1.06-5.39,1.45-8.11.29-2.08.52-4.16.77-6.24a.16.16,0,0,1,0-.09l0,.09c.12-1.54.24-3.08.35-4.62l.06-1.16a1.06,1.06,0,0,0,.11-.72c.11-1.08.23-2.16.34-3.24l.33-4.45c.23-2.34.47-4.67.7-7a37.72,37.72,0,0,1,1.23-5.79c.08-.27.08-.57.35-.75a27.11,27.11,0,0,1,6.83,9.24,60.86,60.86,0,0,0,3.1,5.66,46.55,46.55,0,0,0,3.89,5.83c1.13,1.57,2.2,3.18,3.39,4.7,2.55,3.26,3.76,7.09,4.82,11a3.2,3.2,0,0,0,.16.39c.5,2.24,1,4.48,1.49,6.72a.32.32,0,0,0,.06.27c1.7,12.2,1.44,17.07-.87,25.75-.53,2-1.67,3.79-2,5.86-.59,3.3-.08,4.44,2.84,6.11.72.41,1.51.71,2.27,1.07a23,23,0,0,0,5.27,1.55,3.9,3.9,0,0,0,1.39.31l.47,0a24.71,24.71,0,0,0,5.28.67h0a15,15,0,0,0,3.54.22,37.81,37.81,0,0,0,12-1.45,2,2,0,0,0,.3-.14,3.75,3.75,0,0,0,1.46-.55,3.93,3.93,0,0,0,2.58-2.52,7.32,7.32,0,0,0,.34-4A38.66,38.66,0,0,0,808.86,669c-1-7.67-1.88-16.36-1.88-16.36v-1.67a9.42,9.42,0,0,0,.14-2.37c0-2.18.11-4.37,0-6.56a23.82,23.82,0,0,0-.31-3.26,1.31,1.31,0,0,0-.14-.91,3.79,3.79,0,0,0-.12-1.34c-.12-.45,0-.94-.23-1.37a65.86,65.86,0,0,0-.9-6.56c-.81-5.24-1.87-10.44-2.55-15.7a1.17,1.17,0,0,0-.12-.31c-2-4.92-1.84-11.06-2.15-16.31-.42-7.19-.94-14.57-.43-21.77.46-6.34-1.41-11.72-1.69-18-.17-3.91-.11-6.37-2.17-9.67-.67-1.07,0-2.25-.43-3.28-.33-.73-1.31-1-1.51-1.84a16.15,16.15,0,0,0-2.06-5.74c-1.22-2.14-2.14-4.44-3.21-6.66a37,37,0,0,0-4.44-6.62c-4.64-6-9.27-12-15.07-16.91a3.8,3.8,0,0,0-1.06-1l-.31-.22-1.54-1.39c-2.11-.8-3.38-3.28-5.18-4.69a49.5,49.5,0,0,0-7.3-4.55c-4.65-2.46-9.78-4.59-14.17-7.14a2.57,2.57,0,0,0-1.77-.52H738c-.36-.88-1.24-.77-1.93-1a28.07,28.07,0,0,0-6-1.52,5,5,0,0,0-1.54-.53,3.39,3.39,0,0,0-1.36-.32l-.33,0c-1.1-.19-2.13-.79-3.3-.53l-.28-.17a1.46,1.46,0,0,0-1.39-.26s0,.07,0,.1v-.1l-.36-.19a38.67,38.67,0,0,1-4.1-1.09c-.38-.2-.78-.07-1.17-.1a.29.29,0,0,0,0,.13h0a.33.33,0,0,0,0-.14,2.4,2.4,0,0,0-1.35-.4c-.55-.27-1.18-.06-1.74-.3-.85-.17,4-5.92,6.69-13.81.51-1.48-.08-12.32-1.91-11-.63-.75-12.66.93-18,1.28-4.73.32-10.53,1.42-15.11-.23-3.75-1.36-8.09-.05-12,.7a101.52,101.52,0,0,0-25.33,8.53,2.3,2.3,0,0,0-.69-.05l-.33-.1a9.26,9.26,0,0,0-3.55-1.8,6.83,6.83,0,0,0-3.12-1.64,26.92,26.92,0,0,0-5.78-1.59A6,6,0,0,0,632,460l-.83-.38a9.59,9.59,0,0,0-4.67-.17H626a10.71,10.71,0,0,0-2.59-.15l-1,0A7.78,7.78,0,0,0,620,460h-.17a2.4,2.4,0,0,0-1,.3l-1.16.41-1.4.63a9.21,9.21,0,0,0-2.4,1.17c-.35,0-.7-.24-1,0l-1,.35a3.38,3.38,0,0,0-2.54.59,4.63,4.63,0,0,0-2.66.9,5.32,5.32,0,0,1-1.5.72A24.93,24.93,0,0,0,601,468a3,3,0,0,0-.88.85c-.26.08-.31.36-.49.52a.5.5,0,0,0-.38.46l-.28.58-.23.3a11.84,11.84,0,0,0-1.67,1.57c-.14,0-.17.07-.2.17a4.42,4.42,0,0,1-1.68,2.22l-.54.28a9.05,9.05,0,0,0-1.86.75,3.18,3.18,0,0,0-1.5,1.38,2.06,2.06,0,0,0-.37,1.18l-1.73,3.21a27.87,27.87,0,0,0-3.63,5.31c-.73.83-1.46,1.65-2.18,2.49a2.63,2.63,0,0,1-.72.57c-1,.16-1.43.94-1.83,1.74a1,1,0,0,0-.33.53c-.14.21-.38.37-.35.67l-.34.53c-.26,0-.3.26-.37.45-1.26,1.66-2.72,3.18-3.47,5.2a4.58,4.58,0,0,1-1,1.16,9.23,9.23,0,0,0-1.17,1.73,3.08,3.08,0,0,0-.91,2,5.07,5.07,0,0,0-.29,2.41,35,35,0,0,0-4.71,10.9c-.05.22-.07.45-.1.67a4,4,0,0,0-.37,1.55l-1.35,6.31a29,29,0,0,1-2.37,6,44.53,44.53,0,0,1-6,7l-4,3.23a17.57,17.57,0,0,1-4.73,1.93c-.43.26-.92,0-1.36.18l-3.76-.39a16,16,0,0,0-2-.43,11.84,11.84,0,0,1-4.08-2.33,4.46,4.46,0,0,0-.78-.49c-.44-1.07-1.47-1.67-2.07-2.65s-1.23-1.92-1.77-2.93a5.54,5.54,0,0,0-.56-.74c-.54-1.87-1.07-3.74-1.61-5.62a1.76,1.76,0,0,0,.11-.66c-.42-1.53,0-3.11-.3-4.64l0-.33a2.73,2.73,0,0,0,.17-2.06.92.92,0,0,0,.17-.68.43.43,0,0,0,0-.07c.44-.66.25-1.42.34-2.14l.13-.35a2,2,0,0,0,.48-1.33,3.25,3.25,0,0,1,.4-1.37c.52-.54.47-1.27.64-1.93a2.3,2.3,0,0,0,.54-.82,2.84,2.84,0,0,0,.55-1.37c.85-.67,1-1.79,1.68-2.57.72-.44.84-1.32,1.4-1.87a.79.79,0,0,0,.45-.39c.5-.33.69-.91,1.07-1.33.92-.43,1.35-1.41,2.18-1.94.73-.32,1.14-1,1.75-1.48.13,0,.26,0,.33-.14a9.87,9.87,0,0,0,1.53-1.2,2.2,2.2,0,0,0,1-.56l1.24-.83a2.11,2.11,0,0,0,1-.52,5.4,5.4,0,0,0,1.22-.84,1.24,1.24,0,0,0,.67-.32l2-1.4a10.57,10.57,0,0,0,1.88-1.38,14.9,14.9,0,0,0,2.66-2,34.05,34.05,0,0,0,3.67-3,21.24,21.24,0,0,0,2.85-2.41,43.31,43.31,0,0,0,5-5.27l.47-.51,1-1.39c.9-.76,1.25-1.93,2-2.77a30.25,30.25,0,0,0,2-3.27c.19-.48.56-.83.78-1.28.56-.66.59-1.6,1.16-2.26a1.45,1.45,0,0,0,.38-.82l.69-1.55a1.14,1.14,0,0,0,.34-.69c.37-1.29,1.25-2.38,1.38-3.76a.36.36,0,0,0,.14-.35,2,2,0,0,0,.52-1.17l.35-1.39a2.18,2.18,0,0,0,.51-1.34.57.57,0,0,0,.12-.55,31.56,31.56,0,0,0,1.25-4.6,21.75,21.75,0,0,0,.63-3.93,12.43,12.43,0,0,0,.47-3.77,45.2,45.2,0,0,0-.3-8.54.52.52,0,0,0-.13-.54.61.61,0,0,0-.16-.53c.11-1.66-.71-3.14-.9-4.74a9,9,0,0,1-.68-1.88,9.61,9.61,0,0,0-1-2.75,42.15,42.15,0,0,0-4.25-8.19,27.33,27.33,0,0,0-2-3.09,16.92,16.92,0,0,0-2.06-2.41q-3.48-4.23-7-8.47c-.27-.32-.58-.61-.88-.91a34.67,34.67,0,0,0-4.36-4.46,21.69,21.69,0,0,0-1.77-1.54,1.92,1.92,0,0,0-.71-.55l-.15-.13a.77.77,0,0,0-.54-.35l-.17-.2a28.16,28.16,0,0,0-4.07-2.7,9.33,9.33,0,0,0-1.86-1,33.65,33.65,0,0,0-8.62-3.2,3,3,0,0,0-.67,0,1.13,1.13,0,0,0-.86-.14,4.47,4.47,0,0,0-1.71.07.45.45,0,0,0-.18.07l-.83.19a1.37,1.37,0,0,0-1,.69,1.56,1.56,0,0,0-.36,1c-.54.25-.33.72-.27,1.09a3.61,3.61,0,0,0,.47,1.49,1.87,1.87,0,0,0,.49,1l.39.73a32,32,0,0,0,2.5,3.63,23.17,23.17,0,0,1,2.57,5.12,5.92,5.92,0,0,1,.21,1.51v1l-.06.82a.93.93,0,0,1-.9.73c-1.68.22-3.36.46-5,.7a1.8,1.8,0,0,0-1.21.47,1.22,1.22,0,0,0-.52.51,2.45,2.45,0,0,0-.2,2.93,4.18,4.18,0,0,0,1.4,1.87,1.72,1.72,0,0,0,.83.72h0a2.18,2.18,0,0,0,.88.64,4.25,4.25,0,0,0,1.5.87,1.11,1.11,0,0,0,.73.32,21.29,21.29,0,0,0,4.95,1.44,27,27,0,0,1,5.49,1.75.83.83,0,0,0,.32,0l2.4,1.55.66.56,3.92,5.33a6.83,6.83,0,0,0,1.05,2.15,9,9,0,0,0,.83,2.43l.16.32c.11.75-.09,1.55.36,2.25a.13.13,0,0,0,0,.13c.19.85-.28,1.7,0,2.56.14.37-.11.69-.16,1a20.72,20.72,0,0,1-.7,3.59c.15.91-.69,1.51-.73,2.36s-.64,1.23-.85,1.9-.59,1.36-.89,2l-.32.49a4.75,4.75,0,0,1-.83,1.38c-.59.69-.87,1.59-1.5,2.26l-.18.21c-.4.28-.44.79-.74,1.13a2.42,2.42,0,0,0-1,1.08l-1.07,1.15-.15.17a17.35,17.35,0,0,1-2,2.08,7.65,7.65,0,0,1-1.26,1.15l-.45.39-1.39,1.17a1.55,1.55,0,0,0-.69.52c-.35.39-.94.5-1.19,1l-.16,0c-.82.25-1.27,1.07-2.08,1.33a21.25,21.25,0,0,1-2.55,1.53L536,467.46a1.28,1.28,0,0,0-.64.38l-1.55.83,0,.05,0-.05-.33.18L531.27,470l-1.7,1-.66.39c-.22-.08-.36.06-.51.18l-1.73,1a1.58,1.58,0,0,0-.84.52l.07.1a.15.15,0,0,1-.07-.1l-1,.65a3.37,3.37,0,0,0-1.53.91l-1.07.63a3.49,3.49,0,0,0-1.15.74c-.46.45-1.2.55-1.55,1.17l-.18.14-.49.22-1.64,1.12-.08.06a2.6,2.6,0,0,0-1.18.89,3.31,3.31,0,0,0-1,.83l-.39.3a1,1,0,0,0-.84.56,3.92,3.92,0,0,0-1,1,12.62,12.62,0,0,0-2.37,2.06c-.51.17-.78.62-1.12,1l-1.27,1.41c-.83.68-1.32,1.66-2.1,2.38a2,2,0,0,0-.69,1c-.33.5-1,.73-1.15,1.38a1.29,1.29,0,0,0-.54.84c-.26.52-.83.8-1,1.36a1.3,1.3,0,0,0-.5.86c-.24.72-1,1.15-1.17,1.89a1.7,1.7,0,0,0-.41.84c-.38.83-1.18,1.44-1.32,2.41-.3.9-1,1.61-1.24,2.54a1.31,1.31,0,0,0-.16.7,4.25,4.25,0,0,0-.8,1.88l-.21.47a.16.16,0,0,0,0,.09l-.75,2a63.31,63.31,0,0,0-1.73,6.49l0,.31a.5.5,0,0,0,0,.21,11,11,0,0,0-.49,2.67c-.19.92-.32,1.83-.42,2.76a.29.29,0,0,0,0,.09c-.1,1-.16,1.9-.21,2.85l0,.34c.16,1.15-.38,2.29,0,3.43A40.23,40.23,0,0,0,494.05,537.39Z" transform="translate(-24.26 -22.82)"/><path d="M41.22,698.16a2.52,2.52,0,0,0,.34,1.74,3.74,3.74,0,0,0,.66,2.18c.12,1.1,1.08,1.71,1.39,2.7a3.38,3.38,0,0,0,.8,1.31,4,4,0,0,0,.49.43,7.84,7.84,0,0,1,.86.66,3.49,3.49,0,0,0,1.1.68,1.56,1.56,0,0,0,.43,0,.28.28,0,0,1,.13,0l.16.21a1.46,1.46,0,0,0,.56.64,1.2,1.2,0,0,0,.61.2.44.44,0,0,0,.19-.1.37.37,0,0,0,.34.29l.32,0h0a2,2,0,0,0,.44.6,5,5,0,0,0,1.2.8c1,.21,1.79,1.29,2.94,1a1.44,1.44,0,0,0,.09.24,3.67,3.67,0,0,0,2.81,1h0c2.42.94,4.88,1.63,7.46,1.05.13,0,.27.1.39.16.66.9,1.7.81,2.59,1.12,1.81.09,3.32,1.18,5,1.67a10.54,10.54,0,0,0,5.3.52.89.89,0,0,0,.3.24,16.55,16.55,0,0,0,4.6.37,1.28,1.28,0,0,0,.11-.27,10.41,10.41,0,0,0,2.83.35h0l.33.71a42.62,42.62,0,0,0,8,.77h0c1.32.49,2.69.18,4,.31.59.06,1.21-.13,1.74.29a74.16,74.16,0,0,0,9.31-.32h0c1-.06,2.06.27,3-.34h0a27.76,27.76,0,0,0,5-.39c-.54-1-1.68-.51-2.39-1.07h0l-.91-.69c.18-.36.48-.33.77-.33a.94.94,0,0,0,.1.28,4.94,4.94,0,0,0,4.3,1.11c1.08-.18,2.13-.53,3.22-.63a3.53,3.53,0,0,0,2.33-1.65.54.54,0,0,0,0-.52l-.07-.4h0a1.33,1.33,0,0,0,.1-.28c0-.37,0-.73,0-1.1h0c.11-.12.22-.25.32-.38l-.32-.37h0c0-.35,0-.69,0-1-.4-.72.06-1.75-.78-2.3l-.17,0,0,0h0c0-.14,0-.28,0-.43l0-.37c.18-.91-.63-1-1-1.42h0c.11-.24.23-.47.34-.71V706c-.85-.45-.73-1.56-1.34-2.17a.81.81,0,0,0-.31-.21c-.16-.86-.88-1.3-1.39-1.91h0a8.29,8.29,0,0,0-3.3-2.87h0l-.6-.43h0l-1-1c-.34-.61-1.18-.85-1.12-1.74a4.91,4.91,0,0,0-1.56-2.25h0c-.1-.45.21-1-.38-1.31l-.36-.35a4.27,4.27,0,0,0-.95-2.51,1.68,1.68,0,0,0-.16-1,1.63,1.63,0,0,0,.11-.23,2.86,2.86,0,0,0-.08-1.87,1.39,1.39,0,0,0-.37-.1l.14,0a3.24,3.24,0,0,0-.86-2.92l-.1.07s0,0,0,0c-.12-.72.09-1.49-.35-2.15h0a39.79,39.79,0,0,0-.63-6.06h0a9.91,9.91,0,0,0-.39-3.11,2.79,2.79,0,0,0-.35-1.77l0-.35h0a9.83,9.83,0,0,0-.93-3.62h0c0-.48.19-1-.31-1.41h0a7,7,0,0,0-.33-2.22h0c-.22-.8-.44-1.6-.65-2.4l-.46-1.33h0c-.12-.25-.23-.51-.35-.76-.77-1.24-.56-2.66-.64-4-.05-.66.19-1.4-.3-2h0c-.08-1.65.28-3.34-.29-5h0c0-.59,0-1.18-.08-1.77h0a21.09,21.09,0,0,0-.32-6c0-.34,0-.68,0-1a4.21,4.21,0,0,1,2.33-3.24l1.07-.68h0a11.82,11.82,0,0,0,1.75-1c5.19-4.06,11.47-5.66,17.14-8.64.38-.2.73-.45,1.09-.67h0a25.65,25.65,0,0,0,8-7.87,27.92,27.92,0,0,0,4.65-7.89,12.74,12.74,0,0,1,4-5.57,12.59,12.59,0,0,0,2-2.54h0c1.47-3,4.11-2.76,6.7-2.86a37.58,37.58,0,0,0,7.07-1.37,78.25,78.25,0,0,0,12.29-2.48h0a10.8,10.8,0,0,1,5.68,1c6.52.5,13,1.52,19.52,2,7.49.6,14.94.45,22.25-2,4.37-1.47,8.92-2.35,13.39-3.46a5.87,5.87,0,0,0,2-.75c2.1-.5,4.38-.1,6.31-1.45a30.58,30.58,0,0,0,6.33-2.88l1.81-.9.21-.1h0c.45-.12,1,.06,1.34-.35.91.06,1.79,0,2.27-1a.71.71,0,0,1,.85-.4c1.59.36,2.77-.75,4.15-1.21a36.47,36.47,0,0,1,9.79-2.16,5.46,5.46,0,0,1,3.9,1.22c.11,1.72,1.39,2.82,2,4.27h0l0,1.34a6.27,6.27,0,0,0,0,3.33l0,.62A6.14,6.14,0,0,0,273,593q.39,5.31.77,10.62c.49,7.44-.67,14.83-.75,22.25h0c-.87,3.52-.45,7.12-.59,10.68-.11,2.76,0,5.52-.3,8.27a14.14,14.14,0,0,0-.43,3.43,3.08,3.08,0,0,0-.14,1c-.44,3.09-.66,6.21-.86,9.33h0a6.39,6.39,0,0,0-.32,2.57c-.09.28-.29.57-.25.82.71,4-.45,8-.36,12,0,1.06,0,2.13,0,3.19v1.43l0,5.33a14.54,14.54,0,0,0,.29,5.58c.32,1-.41,1.46-.6,2.18-1.92.92-2.86,2.78-3.85,4.6a.91.91,0,0,0,0,.4c-1.78.37-3.32,3.1-3,5.2a.9.9,0,0,1-.22.06c-.53.44-.53,1.13-.71,1.73a2.4,2.4,0,0,0,0,1.22c0,.54-.09,1.08-.13,1.63,0,0,0,0,0,.07l0,0c-.41.07-.52.4-.61.75a5.56,5.56,0,0,0-.08.82,10,10,0,0,0,.15,2.44l.24,3.53,0,.72c.43.23.29.71.41,1.08h0c-.38,2,.75,2.46,2.27,2.52a7.3,7.3,0,0,0,3.71.26h0l.14,0,.14,0,2.32.33h.41l.65,0h0c.57.06,1.2.29,1.37-.62h1.3c0-.48-.83-.38-.49-.94s.53,0,.77.15c1.28.67,2.71.62,4.06,1a1.64,1.64,0,0,0,0,.23h0a.86.86,0,0,1-.27,0h-2.55l.8.6a80.59,80.59,0,0,0,10.07-.27h0l4.27-.07h10.69a.34.34,0,0,0-.08-.48l-.09,0a3.44,3.44,0,0,0,.55-.15,2,2,0,0,0,1.64-.29c.58-.16,1.23.09,1.74-.41h0l.34-.07h2.93l2-.07c.47.26.54-.18.72-.45,1.29,0,1.94-.91,2.57-1.89a.44.44,0,0,0,0-.34l.11-.4-.08-1,.07-1.07c-.36-1.31-.72-2.61-1.07-3.92l0-.66-.88-1.53a.21.21,0,0,0-.11-.26,9.38,9.38,0,0,0-2.58-2.91h0a2,2,0,0,0-1-.73,1.8,1.8,0,0,0-1-.79h0c-.35-.49-.72-.94-1.38-.91a4.16,4.16,0,0,0-1.69-1.08h0c-.05-1-1-1-1.51-1.47-.59-.77-.64-2-1.82-2.28v-.51h0a2.52,2.52,0,0,0-1-2l-.22-.24h0l-1.11-1c-.48-.62-.29-1.6-1-2.08v0h0a7.54,7.54,0,0,1-.33-2.83c.18-.78,1.11-.72,1.36-1.41a3.42,3.42,0,0,0,.67-3.57l.34-.64A3.48,3.48,0,0,0,300.8,680a38.55,38.55,0,0,0,5.34-12.45,10.58,10.58,0,0,0,1-3.55.21.21,0,0,0,.07-.28.8.8,0,0,0,.25-.79q1.85-6.91,3.68-13.85h0l1.38-4.25.49-1.36h0q1.9-6.07,3.82-12.14l.94-2.49.49-1-.14-.05h0l.14.06c1.08,0,1,1,1.11,1.65,2,8.48,5.57,16.36,8.42,24.52.09.26.12.59.44.68.55.36,0,1.21.62,1.54a35.86,35.86,0,0,1,1.63,6.82,35.08,35.08,0,0,0,2.35,8.65,2.16,2.16,0,0,1,.05,1,35.43,35.43,0,0,0,.78,8.54,60.81,60.81,0,0,1,.31,6.88c-.36,2.48.13,5,0,7.45h0l0,.73a.17.17,0,0,0-.08.24c-1.43,1.72-3.07,3.3-3.36,5.77a12.83,12.83,0,0,0-1,2.86h0a.55.55,0,0,0-.32.52l-.29.19a6.18,6.18,0,0,0-.77,2.37c-.09,1.57-.07,3.14,0,4.7a2.63,2.63,0,0,0,.1.56,3.35,3.35,0,0,0,1,1.63l.31.25a.79.79,0,0,0-.1.37,2.07,2.07,0,0,0,.29.7,6.21,6.21,0,0,0,4.53,3c.44.15.94-.09,1.37.21l.62,0,1.65,0a.46.46,0,0,0,0,.32h20.74c1.32,0,2.65,0,4,0a3.53,3.53,0,0,0,2,0,.54.54,0,0,0,0-.37h0l4.94-.09h0a40,40,0,0,0,8.39-.64h0l2-.08v-.31l1,0h0c.68-.08,1.43.3,2-.34h0c.33-.52.87-.27,1.4-.41l-.73-1a.7.7,0,0,1-.7-.4h0c0-.28.07-.58.4-.67l.05-.7c.34-.39.25-.89.28-1.36h0a.78.78,0,0,1,.24-.16l.12-1a12.68,12.68,0,0,0,.1-2.54,1.33,1.33,0,0,0,0-.2c.06,0,.12,0,.17-.11l-.34-1.08c.18-1.13-.7-1.32-1.34-1.73h0a.7.7,0,0,0-.35-.75,4.25,4.25,0,0,0-1.27-2.86,10.09,10.09,0,0,0-4-4.24h0c-1.16-1.44-2.86-2-4.33-2.9h0l-.35-.28h0c-.43-.28-.78-.72-1.33-.75a3.51,3.51,0,0,0-1.35-1.3h0a.51.51,0,0,0-.31-.13h0a38.44,38.44,0,0,1-4.33-5.63h0c.29-.44-.11-.54-.32-.73a4.59,4.59,0,0,0-.69-2.15c.09-1.53-1.08-3-.34-4.54h0a5.15,5.15,0,0,0,.45-3.28c-.24-.81.3-1.41.53-2.1h0a5,5,0,0,0,1.33-2.8c.66-5.15.26-10.29-.15-15.42a9.66,9.66,0,0,0-.13-1.7h0a19.84,19.84,0,0,0-.37-5.65,12,12,0,0,0-.26-3.22h0c-.05-.58-.09-1.16-.13-1.74h0a51.24,51.24,0,0,0-.91-7.91h0a8.31,8.31,0,0,0-.32-2.85h0a.2.2,0,0,0-.06-.25,5,5,0,0,0-.27-2.55h0a12.77,12.77,0,0,0-.39-3.85c0-1,.21-2-.31-2.91a8.28,8.28,0,0,0-.29-3.17h0a13.84,13.84,0,0,0-.44-3.85,32.81,32.81,0,0,0-.84-6.1A1.27,1.27,0,0,0,361,611a10.78,10.78,0,0,0-.65-3.56c-.12-.91-.23-1.83-.35-2.74h0a5.49,5.49,0,0,0-.34-2.54l-.07-1.74h0a4,4,0,0,0-.25-1.79l-.09-2.1-.29-2.49c-.12-1.42-.25-2.83-.38-4.25h0v-.71l-.62-4.63a24.27,24.27,0,0,0-1-4.29h0c0-.6.15-1.25-.31-1.78h0c-.14-1.16-.28-2.31-.43-3.47h0c.05-.41.11-.82-.26-1.12h0c-.19-1.34-1.13-2.46-1-3.89l-.34-1.07h0l-.33-1.07h0a1.3,1.3,0,0,0,0-.34c-.42-1.32-.85-2.64-1.27-4h0c-.05-.36,0-.77-.38-1a13.8,13.8,0,0,0-1.28-4.69h0c-.06-.6.11-1.26-.34-1.77h0c0-.33-.05-.66-.07-1h0a3.84,3.84,0,0,0-.59-2.14c-.22-1.08-.45-2.17-.68-3.26h0a9.44,9.44,0,0,0-.46-2.8h0c-.1-.83-.19-1.67-.29-2.5,0-.46.07-.92.1-1.37.45-.35.49-.93.72-1.4.37-.29.36-.76.48-1.16a.51.51,0,0,0,.09-.27c.48-.3.51-.87.71-1.33l1-1.86.3-.29c1,.1.34,1.31,1,1.68a.16.16,0,0,1,.17-.07l-.17.07c1.34,2.82,4.12,3.53,5.71,1.47a8.06,8.06,0,0,0,1.61-2.55h0a7.65,7.65,0,0,0,1.39-2.83,13.76,13.76,0,0,0,1.75-4.69,5.36,5.36,0,0,1,1-2.38c.65-1,1.31-1.2,2.18-.31.4.41.94.89,1.46.65,1.8-.83,3.31.09,4.89.71l1.39.66c.33,1,1.28.76,1.93,1.13h0c0,.05.07.15.09.14,3.16-.38,5,2.28,7.43,3.6.39.22.79.4,1.19.59l.67.36.37.21a8.06,8.06,0,0,0,3.68,1.48l.09.08.11,0a4.26,4.26,0,0,0,2.47.66l.1.09.11-.05a13.35,13.35,0,0,0,4.47.65,4.47,4.47,0,0,0,2.67.31c1.33,0,2.75-.37,3.66,1.13a1.79,1.79,0,0,0,.69,1h0a11,11,0,0,0,2.36,3.55h0c.85,1.86,1.8,3.64,3.63,4.63a23.18,23.18,0,0,0,1,4,9.48,9.48,0,0,0,1.6,4.6h0a4.2,4.2,0,0,0,.72,1.85c.91,1.23.35,2.86,1,4.16a2,2,0,0,0,1,1.85c1.41,1.18,2.34-.1,3.39-.75h0c.65.6.13,1.41.33,2.08a3.79,3.79,0,0,0,.9,3.58h0c-.08.57-.17,1.14-.25,1.71-1,1.58-1.58,3.22-.69,5.08-.11,1-.23,2-.35,3h0a14.1,14.1,0,0,0-.26,6.86,5.15,5.15,0,0,0-.74,3.56h0l.07,1.77h0A45.48,45.48,0,0,0,417,598.5a9.58,9.58,0,0,1-.08,2.27h0a12.31,12.31,0,0,0-.59,3.94,4.85,4.85,0,0,1-.61,2.5h0a1.79,1.79,0,0,0-.37,1.75h0c0,.59,0,1.19,0,1.78l-.4,2h0c-.47.84-.2,1.77-.32,2.66l0,.34c-.3.56-.84,1-.68,1.78-.16.3-.48.54-.37,1h0c-.65,1.06-.22,2.2-.24,3.32l-.41,1.34c-1,2-.66,4.41-1.67,6.42h0a5,5,0,0,0-.28,2.55c0,.53-.06,1.06-.1,1.6a10.53,10.53,0,0,0-1,3.95h0a6.92,6.92,0,0,0-.32,2.17h0a2.65,2.65,0,0,0-.16.82l-.48,2.44h0l0,.6a13.47,13.47,0,0,0-.33,3.29,1.77,1.77,0,0,0-.28,1.43l-.09.09,0,.13h0a2.29,2.29,0,0,0-.24,1.56c0,.58-.07,1.17-.11,1.75-.14,1.93-.76,3.8-.58,5.76h0l0,1.67h0c-.13.49-.25,1-.38,1.47a1.64,1.64,0,0,0-.34,1.77,1.73,1.73,0,0,0,.29,1.45h0l0,0h0a3.68,3.68,0,0,1,.33,1.77c-.78.69-1.74,1.32-.73,2.58.24.55.49,1.11.73,1.67l-.66,1a2,2,0,0,0-.36,2.55.37.37,0,0,0,.1.32l.21,1-.57.79h0c-.37,1,.45,1.3.9,1.81l.69.73a1.74,1.74,0,0,1-.34,2h0c-1.08,1-.47,1.62.34,2.26.63.87-1.11,1.25-.39,2.14a1.15,1.15,0,0,0,.76,1l.37.26.33.45c0,.45.22,1.09-.17,1.31-1,.59-.47,1.22-.18,1.88l0,.36h0a2.42,2.42,0,0,0,.19,1.48.47.47,0,0,0,0,.1l0,1.25h0c-1.24.69,0,1.69-.29,2.5h0l-.07.15-.05,0a.53.53,0,0,0-.3.61l.09.12L408,697a1.54,1.54,0,0,0-.59,1.43l-.36.73a1.16,1.16,0,0,0-.37,1l-.21.44h0a1.09,1.09,0,0,1-.69.71c-.38.08-.4.36-.35.69-.13.22-.26.43-.38.65h0a.62.62,0,0,0-.71.32h0l-.31.35h0l-.33.43h0c-.63-.33-.62.44-.95.63a.44.44,0,0,0-.07-.34h0a4.42,4.42,0,0,0-2-2.15h0l-.32-.3h0l-.35-.34h0c-1.36-1.61-3.48-1.89-5.72-.77a5.63,5.63,0,0,0-2,1.67,2.85,2.85,0,0,0-1,2.28c-.11.63-.22,1.26-.34,1.88h0a1.18,1.18,0,0,0-.72.06,5.87,5.87,0,0,1-.36-.81c-.22-.71-.68-.8-1.3-.68s-.77.62-.71,1.18c.3,3.11,1,5.6,4.25,7.19v0c.05.34.18.62.53.69.88-.06,1.38.68,2,1.09.64,0,1.06.49,1.58.75h0a1.89,1.89,0,0,0,.09.34c1,.47,1.86,1.28,3,1.4.05.1.1.21.14.31.82,1.17,2.14.72,3.19,1.13l2,.06A24.57,24.57,0,0,0,410,718h0l.64-.07h0l1.08-.24a1.2,1.2,0,0,0,.95-.79h0l1-.27a1.78,1.78,0,0,0,.29-.12h0a1.56,1.56,0,0,0,.31,0l.39-.38.15,0,.15,0a1,1,0,0,1,.09-.3h0l.26,0,.36-.65.15,0H416l.38-.37.62-.05.34-.32c.48-.32,1-.62.71-1.39a1.53,1.53,0,0,0,1-1.09c.3,0,.59,0,.74-.33a1.42,1.42,0,0,0,.64-1.09h0c.51,0,.74-.31.91-.75h0l1-1.07h0a.69.69,0,0,0,.12-.29h0c.42-1,.85-1.91,1.28-2.87h0l.25-.41h0l.37-1c.41-.23.38-.64.4-1l.32-.66h0a3.09,3.09,0,0,0,.66-1.78,3.89,3.89,0,0,0,.63-1.82h0a2.85,2.85,0,0,0,.37-1.76c.13-.36.43-.66.31-1.09a1.61,1.61,0,0,0,.29-1.44h0c0-.23,0-.46,0-.69.59-.62.22-1.41.34-2.12V691h0c.47-.77.23-1.65.34-2.47h0l0-1.82h0l.06-.94h0a13.9,13.9,0,0,0,.14-4h0l0-1.07h0a.4.4,0,0,0,0-.32h0c-.19-.61.53-1.18.06-1.79l0-1.77h0c0-.36,0-.73,0-1.09a7.08,7.08,0,0,0-.2-2.75h0c.41-.55.17-1.22.27-1.83h0c.18-1.68.55-3.35,0-5h0c0-.46,0-.92,0-1.38h0l0-.35h0c.41-.3.16-.65.07-1h0l.54-2.92a9.73,9.73,0,0,0,.38-2.84.94.94,0,0,1-.1-.1h0l.1.1c.63-.55.52-1.47.92-2.13h0c0-.12,0-.24.07-.36a4.74,4.74,0,0,0,.37-2.11h0c.26-.25.3-.5,0-.73h0l.11-.65c.81-.29.35-.92.33-1.43.28-.14.26-.42.27-.68h0c1-.23.75-1.17.93-1.86h0a.35.35,0,0,0,.1-.27h0c.65-.85.5-2,1-2.9h0a2.06,2.06,0,0,0,.27-1.46.62.62,0,0,0,0-.33c.88-.41.33-1.13.35-1.73l-.1-.12h0l.09.13a1,1,0,0,0,.6-1.11h0a.36.36,0,0,0,.07-.3.76.76,0,0,0,.56-.77,3.08,3.08,0,0,0,.68-2.52l.14-1h0l.54-.46a2.35,2.35,0,0,0,1-2.1h0a2.51,2.51,0,0,0,.53-1.35c.29-.79,1.38-1.37.59-2.46l.3-.08h0c.23.09.33-.06.4-.25a1.85,1.85,0,0,0,.62-1.51l.32-.36c.87-.35.4-1.21.62-1.82a1.22,1.22,0,0,0,.09-.27,1.29,1.29,0,0,0,.71-.74h0c.53-.4.13-.73-.08-1.07.48,0,.74-.17.6-.73h0c.16-.33.31-.67.47-1a.65.65,0,0,0,.61-.39h0c.78-.82.41-2.05.93-3h0c0-.19.07-.39.1-.58l.15,0,.13-.09c1.05-.76.87-2.12,1.36-3.16h0c.42-.53.26-1.18.33-1.78a2.81,2.81,0,0,1,.08-.31c1.27-.67,1.1-2.24,1.79-3.27h0l.11-.34,0-1.06.33-.35a1.11,1.11,0,0,0,1-1h0a1.79,1.79,0,0,0,.29-1.47,1.63,1.63,0,0,0,.59-1.11h0a4.89,4.89,0,0,0,.48-2.35c.39-.16.83-.25.92-.79h0c1.05-.83-.25-2.32.77-3.16,1.36-1.21,1.21-2.92,1.33-4.55h0a1.11,1.11,0,0,1,.27-.12.51.51,0,0,0,.68-.34,7.59,7.59,0,0,0,1-3.88h0a.67.67,0,0,0,.22-.72c1.22-.39.91-1.56,1.12-2.47l.3-.39c.59-.58.25-1.17,0-1.76h0c.35-.11.26-.48.36-.72.42,0,.52-.42.67-.74h0c1-.82.24-1.86.32-2.79,1.36-.72,1-2,1-3.23l.31-.4c1.46-.76,1.1-2,.74-3.21v-.57h0l.28-.44h0a2.28,2.28,0,0,0,.29-2.92l.33-.29c.76-.31.91-1,1.05-1.76s.77-1.44,0-2.16v0h0l0,0v-1h0c.4-1.12-1.23-2-.33-3.19h0c1-.61,1.05-1.21,0-1.8-.2-.76,1.27-1.25.31-2.13-.8-1.36.39-2.86-.26-4.23h0a1,1,0,0,0,1-.72c1-.9.48-2.12.65-3.19.24-1.56-.63-3.19.3-4.69h0c0-1.17,0-2.33,0-3.5a4.2,4.2,0,0,0-.62-2.14c-.58-1,.58-2.39-.7-3.2h0a2.46,2.46,0,0,0,.07-.29c.2,0,.58.17.53-.1-.27-1.64.08-3.36-.57-4.94.5-2.62-1.45-5.08-.44-7.74.06-.16-.08-.6-.17-.61-1.28-.17-.82-1-.66-1.78.2-1-.5-.83-1-.85l-.07,0s0-.06,0-.09l.06,0,.25-.7h0c.62-.93.22-1.74-.27-2.54,0-.59,0-1.18,0-1.76a1.14,1.14,0,0,0-.6-1.08h0c1-.91.3-1.52-.36-2.12h0a13.05,13.05,0,0,0-1-3.19,3.05,3.05,0,0,0-1-2.5h0c0-.11,0-.22,0-.33.09-.58.46-1.16,0-1.75h0c.22-.14.22-.27,0-.4,0-2.26-1-4.14-2-6h0a17.94,17.94,0,0,1-.67-4.25h0c-1.11-1.33-.69-3.14-1.3-4.63h0c.12-2.13-.66-4.09-1-6.14a1,1,0,0,0-1-1h0c.53-.72,1-1.43,0-2.14l.33-.7h0c-.1-.6-.19-1.2-.29-1.8.21-1-.63-1.82-.39-2.82h0a3.51,3.51,0,0,0-.62-1.72c.12-1.61.26-3.23-.7-4.67.57-1.52-.33-2.89-.46-4.34a4.79,4.79,0,0,0-.81-2.44l-.08,0v0h0l.08,0a3.16,3.16,0,0,0-.43-1.73,5.19,5.19,0,0,0-1.28-3,.17.17,0,0,0,0-.18h0a5.56,5.56,0,0,0-.76-2.13l-.59-1.14h0l-.34-.69a31.38,31.38,0,0,0-4.71-6.71h0l-.62-.76c-1-1.34-2.45-2.21-3-3.9h0a7.31,7.31,0,0,0-.75-3.16,10.11,10.11,0,0,0-1-2.84c-.45-2-1.67-3.73-2.27-5.7-.38-3.18-2.12-5.73-3.38-8.51L430,418v0l.11-.05-.68-1.4-.34-.73h0c0-.62-.46-1-.7-1.42l-.24-.4h0a9.45,9.45,0,0,0-1.7-2.83h0a3.77,3.77,0,0,0-1-1.49h0a1.54,1.54,0,0,0-.68-1.07h0a2.26,2.26,0,0,0-.91-1.35h0a3.13,3.13,0,0,0-1.06-1.46l0,.07h0l.06-.08a5.59,5.59,0,0,0-1.68-2.44h0l-.64-1.44h0l-.36-.66h0l-.75-2.09a3.43,3.43,0,0,0-.85-1.51h0c-.47-.95-.94-1.9-1.4-2.85a11.06,11.06,0,0,0-1.74-2.77h0l-.9-1.14h0l-1.06-1h0a1.28,1.28,0,0,0-.11-.27c-.24-.6-.79-.8-1.24-1.15h0l-.3-.29s0,0,0,0l-.93-.76h0a8.82,8.82,0,0,0-3.08-1.74,6.07,6.07,0,0,0-3-1.43h0a4.45,4.45,0,0,0-2-.7,4.29,4.29,0,0,0-2.36-.65h0l-.59-.09h0a2.05,2.05,0,0,0-2.06,0h0c-.12-.37-.39-.35-.67-.29l-1.34,0-2.32,0-3.69-.77h0a.91.91,0,0,0-1-.28h0a1,1,0,0,0-1,.24h0c-.83-1.26-2-.34-3-.6h-.33a7.31,7.31,0,0,0-3.41.26h0l-.93,0h0l-1.67,0h0c-.91,0-1.86-.22-2.73.3h0l-1.62,0a4,4,0,0,0-2.43.27h0l-2.56.12c-2.39.32-4.86.09-7.09,1.34h0a1.4,1.4,0,0,0-1.64,0h0a.45.45,0,0,0-.3.07h-.66c-1.43.59-3,.26-4.44.94h0l-.91.18v.18c0-.06,0-.12,0-.18l-1.33.27h-.37l-1.62.36h0a2.75,2.75,0,0,0-2.07.37h-.6l-4.38.33h-2l-1.64,0h0a5.39,5.39,0,0,0-3,.31h0a.72.72,0,0,0-.29-.06h0c-.73-.66-1.59-.2-2.38-.31-.28-.38-.64.06-.94-.09-.53-.43-1.14-.21-1.72-.22h-1a1.37,1.37,0,0,0-1.33.34l-.66-.4h0a21.83,21.83,0,0,0-6.7-.23h0c-1.13-1-2.47,0-3.66-.42l-3.63-.05h0c-1.55-.72-3.18-.07-4.75-.27h-.61l-2.37,0h0a.53.53,0,0,0-.33,0h-.37a4.15,4.15,0,0,0-1.95,0l-.69.33h0c-.64-.93-1.49-.51-2.29-.39h0c-1.16-.73-2.29,0-3.43.1h0a.45.45,0,0,0-.28,0c-.33-.2-.66-.54-1-.05l-.7-.25h0a2,2,0,0,0-1.58.23h0c-2.11-.61-4.27-.25-6.4-.32h0c-2.42-.23-4.84-.41-7.25-.71-.89-.11-.59,1.29-1.44,1.08h0c-.21-.36-.21-.86-.62-1.1a18.81,18.81,0,0,0-5.06-.62,50.87,50.87,0,0,0-6-1.2h0l-2.06-.59h0c-1,0-2-.69-3-.36h0l-.27-.1h0c-.66-1.21-1.77-.44-2.65-.69h0c-.28-.37-.68-.33-1.06-.32h0l-.26,0h0c-1-1.31-2.5-.91-3.72-1.43h0c-.95-.55-2.14.19-3-.67l-2-.06c-.28-.38-.67-.31-1-.28h0c-.32-.56-.67-.12-1,0a18.7,18.7,0,0,0-5.35-.71h0a1.1,1.1,0,0,0-1.33,0h0l-.33,0h0a.83.83,0,0,0-.31,0c-1.88-.69-3.81-.2-5.72-.32h0c-1.06-.68-2.21-.27-3.32-.29h0l-2.34-.06h0l-6.71.06h0a.76.76,0,0,0-.3,0h0a4.38,4.38,0,0,0-2.72.23l-.63.07a9.75,9.75,0,0,0-3.68.35H214a6.1,6.1,0,0,0-2.71.31h0a10.9,10.9,0,0,0-3.31.41h0l-.34,0c-1.38.14-2.8.11-4,1a15,15,0,0,0-5.39,1.06.26.26,0,0,0-.28.09h0a1.51,1.51,0,0,0-1.34.3h0c-1.92.67-3.95,1-5.73,2.09-.81-.16-1.52.32-2.28.47l-3.67,1c-.45,0-.86.07-1,.59l-1.92.41c-.78-.47-1.41,0-2.07.36-.27,0-.55,0-.67.36h0l-.32.09c-.62,0-1.27-.34-1.81.24a.11.11,0,0,0-.19.05c-.85-.33-1.55.35-2.34.39a20.42,20.42,0,0,0-4.35,1h0a7.34,7.34,0,0,0-2.67.7,25.74,25.74,0,0,0-5.35,1.13h0l-1,.27a6,6,0,0,0-2.75.67l-.91.1h0a1.31,1.31,0,0,0-1,.35h0l-1,.31h0a1.12,1.12,0,0,0-1,.29h0l-4.28,1.19h0a.64.64,0,0,0-.73.4c-1.12.56-2.46.61-3.4,1.61l-.57.18-.36.25a6,6,0,0,0-2,1.09l-1,.76-3.41,2A11.12,11.12,0,0,0,132,400.1a.19.19,0,0,0-.22.06,2.06,2.06,0,0,0-1.37.7.69.69,0,0,0-.72.27l-1.3.75L126.09,403a1.62,1.62,0,0,0-1.14.62h0a4.05,4.05,0,0,0-1.85.84l-2.72,1.36a.32.32,0,0,0-.27.1,1,1,0,0,0-.73.53h0a1.79,1.79,0,0,0-1.31.47h0a4.16,4.16,0,0,0-2,1.07h0a.3.3,0,0,0-.31.09l-1.06.58-.64.38a8.49,8.49,0,0,0-2.67,1.42c-.75.64-1.84.7-2.42,1.63a8,8,0,0,0-2.64,1.54,4.55,4.55,0,0,0-2,1.07,38.51,38.51,0,0,0-7,3.55,11.5,11.5,0,0,0-3.73,2.45h0l-.82.66a.22.22,0,0,0-.13.1,25.5,25.5,0,0,0-4,3.16,7.78,7.78,0,0,0-2.29,1.83l-.36.32A21.69,21.69,0,0,0,82.34,430c-.35.32-.83.51-1,1a126.26,126.26,0,0,0-10,10.65,18.66,18.66,0,0,0-4,4.63c-.71.84-1.59,1.55-1.77,2.76a10.86,10.86,0,0,0-1.92,2.29,1.24,1.24,0,0,1,.16.29.88.88,0,0,1-.16-.29c-.42.17-.48.63-.69,1a18.41,18.41,0,0,0-2.64,4.28,31,31,0,0,0-2.7,6.38l.1.1h0l-.1-.1a7.9,7.9,0,0,0-1,3.2h0c-1.15,1.9-1.27,4.19-2.05,6.23h0A2.89,2.89,0,0,0,54,474h0a29.42,29.42,0,0,0-2.68,8.18c-.09,0-.11.12-.05.2h0a4.83,4.83,0,0,0-.63,2.29h0a23.26,23.26,0,0,1-1.05,4.12c-.67.74,0,1.84-.63,2.6a2,2,0,0,0-.35,1.37h0a8.84,8.84,0,0,0-.69,3.21h0a16.19,16.19,0,0,0-.87,5h0a37.87,37.87,0,0,0-.78,7.13v.93h0a1.94,1.94,0,0,0-.16.5,133.19,133.19,0,0,0,1.84,30.89,44.3,44.3,0,0,0,.71,6.39c.16,1.68.32,3.36.47,5a8.44,8.44,0,0,0,.14,1.49c.16,1.62-.5,3.29.22,4.89h0c-.15.18-.41.32-.22.64a6.14,6.14,0,0,0,0,2.49l.25.11a.94.94,0,0,1-.25-.11,8.53,8.53,0,0,0,.27,3.22l.08,1a4.33,4.33,0,0,0,.29,2.16l0,0h0a19.28,19.28,0,0,0,.69,5,6.89,6.89,0,0,0,.37,2.78h0a16.63,16.63,0,0,0,.68,4.27h0c0,1.3,0,2.61,0,3.91-.59,15.37-3,30.6-3.14,46,0,.35,0,.7,0,1.05h0a7.23,7.23,0,0,0-.07.79c-.58,6.47-.8,13-.82,19.46q0,3.07,0,6.17h0l0,.37,0,.35a10.9,10.9,0,0,0,0,7.47l.3,1.78h0c-.11.43-.21.86-.32,1.3h0a6.52,6.52,0,0,0-.57,4c0,1.06-.07,2.12-.1,3.18l-1.65,5.7a1.83,1.83,0,0,1,.67-.95,3.13,3.13,0,0,0-.67.95,24.56,24.56,0,0,0-1.43,4.21c-1,2-2.34,3.89-1.91,6.38h0l-.36,2.89a3.65,3.65,0,0,0-.39,1.75A1.46,1.46,0,0,0,41.22,698.16Zm377-107.74a1.14,1.14,0,0,0-.18-.25C418.1,590.23,418.19,590.32,418.18,590.42Z" transform="translate(-24.26 -22.82)"/><path d="M24.38,142a25.07,25.07,0,0,0,.3,3.65c0,.08.1.16.16.23h0c.37.84-.06,1.8.35,2.64.09.2,0,.51.19.7h0l.75,3.7h0a31.28,31.28,0,0,0,1.05,4.32,1.27,1.27,0,0,0,.06.18h0c0,.34.27.51.38.78-.1.68.43,1.22.5,1.74.14,1,.88,1.61,1.14,2.57a12.82,12.82,0,0,0,1.94,3.76l.67.92h0c.69.94,1,2.15,1.83,3h0a27.32,27.32,0,0,0,2,4,7.5,7.5,0,0,1,.44,1c-.11.62.34,1,.56,1.5,1,2.26,2.3,4.43,3.15,6.76.69,1.92,1.82,3.64,2.21,5.68.07.36.31.34.56.35a12.51,12.51,0,0,1,1.29,2.65,1.7,1.7,0,0,0,.51.89l.07-.05v0l-.07,0,.41,1.15h0A14.32,14.32,0,0,0,46,197.83a.46.46,0,0,0,.1.23c.12.45.25.91.37,1.37h0a32.55,32.55,0,0,1,.88,3.6c.26,2,1,3.91,1.42,5.88a28.7,28.7,0,0,0,2.11,7h0L52,219a.37.37,0,0,0,.08.22c.82,2.42,1.67,4.83,2.59,7.21.46,1.19,1,2.34,1.45,3.53.09.24.15.49.4.61h0A12.15,12.15,0,0,0,58,234c.14.41.11.92.56,1.16h0c.07.25.15.51.22.77h0c-.07.4.38.59.36,1h0a32,32,0,0,1,1.73,3.91,21.18,21.18,0,0,1,.49,4.54,8.67,8.67,0,0,0,.19,2.69,5.36,5.36,0,0,1,0,2.58,19.79,19.79,0,0,0,.18,6.56,2,2,0,0,0,.59,1h0l.17.22a16.49,16.49,0,0,1,.67,3.15c.06.86-.24,1.66-.11,2.49h0c-.3.35-.13.78-.18,1.17h0a5.68,5.68,0,0,0-.49,2.63,38.68,38.68,0,0,0-.4,5.58,87.64,87.64,0,0,1-1,10.38c-.23,2.07-.33,4.15-.54,6.22-.27,2.66-.31,5.35-.83,8a29.69,29.69,0,0,0-.46,3.55c-.21,2.65-.45,5.29-.4,8,0,1.22.4,2.37.4,3.57h0a11.08,11.08,0,0,0,.9,3.73l0,0h0l-.06,0a17.21,17.21,0,0,1,.22,3.51,33.25,33.25,0,0,0-.57,4.09,15.61,15.61,0,0,0-.31,5,40.82,40.82,0,0,0,.51,4.68,6.27,6.27,0,0,0,.72,2.5h0A8,8,0,0,0,62,339.44c.15.14.28.38.52.15h0l.23.18L63,340a1,1,0,0,0,.74.38,13.88,13.88,0,0,0,3,.81l0-.1h0l-.06.09.57.17h0c1.27.65,2.68.36,4,.7a27.78,27.78,0,0,0,4,.49,7.6,7.6,0,0,0,2.9.43c2.31.08,4.62,0,6.93,0a2.13,2.13,0,0,0,1.65-.44l.54,0c1.74-.28,3.48-.52,5.21-.83a10.51,10.51,0,0,0,2.74-.91,1.61,1.61,0,0,0,.58-.58l.16,0,.21-.77a7.72,7.72,0,0,0,1.31-3.28,9.41,9.41,0,0,0,.67-2.91c.07-.71.42-1,1-.9a6.53,6.53,0,0,0,3.77-.59,2.43,2.43,0,0,1,1.53-.09,3.93,3.93,0,0,0,4.27-1.23c.64-.3.74-1.05,1.13-1.56v-.19c.6-.31.46-.91.51-1.44a4.33,4.33,0,0,0-.88-3.25h0c-.39-.45-.6-1.05-1.11-1.38h0l-1.94-1.71v0c-.22-.88-.9-1.24-1.59-1.59h0a10.89,10.89,0,0,0-1.85-2.15l-.19-.19c-.78-.9-1.1-2.15-2-2.94l-.19-.38c-.27-.24-.26-.78-.73-.8h0a.71.71,0,0,0-.36-.59h0l-.39-.95c-.4-.2-.18-.9-.72-1l-.19-.41a1.65,1.65,0,0,0-.2-.95c-.39-.36-.18-1.11-.76-1.36l-.7-1.77h0a3,3,0,0,0-.37-1.39h0a1.59,1.59,0,0,0-.16-1c-.54-4-1.06-8-1.61-12-.16-1.21-.42-2.41-.64-3.62h0a59.66,59.66,0,0,0-1.47-8.18h0a21.43,21.43,0,0,0-.74-3.56h0a.14.14,0,0,0,0-.14h0c-.33-2.14-.62-4.29-1-6.43a68.4,68.4,0,0,1-.64-12.71c0-1.36.09-2.73.13-4.09a.16.16,0,0,0,0-.19c.21-1.27.45-2.53.61-3.81.34-2.79,1.8-5,3.37-7.1a9.74,9.74,0,0,0,.85-1.37,5.74,5.74,0,0,0,1.05-1.64,4.79,4.79,0,0,0,1.14-1.93h0c1.23-1.89,2.11-4.05,3.71-5.67a16,16,0,0,0,2.34-2h0c.09,0,.22.06.26,0,1-1.2,2.26-2.16,3-3.63l.32-.46a3,3,0,0,0,1.14-1.73,19.23,19.23,0,0,0,1.78-4.14,23.24,23.24,0,0,0,1-2.91l1.68-2.51h0l.9-.8a20.63,20.63,0,0,1,5.11-4.4,10.34,10.34,0,0,1,5-1.5,105.17,105.17,0,0,1,13.51,1c.7.07,1.41,0,2.12.06,4.94.55,9.82-.15,14.71-.84,2.68-.38,5.39-.47,8.09-.69a30.18,30.18,0,0,0,6.49-.81h0a6.89,6.89,0,0,0,2-.39h0l.54,0a6.35,6.35,0,0,0,2-.2,29.28,29.28,0,0,1,8.22-1,7.3,7.3,0,0,1,2.71.19c1.22-.07,2.31.57,3.48.8a4.1,4.1,0,0,0,1.35.16l-.39-.15a3.12,3.12,0,0,1,.39.15l3.51.85a1.23,1.23,0,0,1,.74.55q0,3.32,0,6.63a.7.7,0,0,0-.16.54c-.07,2-.09,4.09-.22,6.13a12.25,12.25,0,0,1-.53,2.35,3.59,3.59,0,0,0-.18,1.34h0a22.9,22.9,0,0,0-.41,3.88h0c-.27.36-.16.78-.17,1.18a9.56,9.56,0,0,0-.34,2.38c-.2,2.18-.36,4.37-.68,6.55s-.47,4.17-.62,6.26c-.3,4.29-.34,8.62-1.18,12.84-.58,2.91-1.11,5.82-1.65,8.73-.39,2.1-1,4.13-1.26,6.26h0a8.71,8.71,0,0,0-.53,2.53c-.25,2.11-1,4.11-1.14,6.23-.08,1.27-.78,2.33-1,3.55l-.12.76h0l-.16,0h0a4.83,4.83,0,0,0-.56,1.94c-.51,1.19-.59,2.54-1.3,3.66a3.18,3.18,0,0,0-.21,1h0a35.51,35.51,0,0,0-1.84,7.07c-.57,3.36-.91,6.76-1.63,10.1a29.63,29.63,0,0,1-1.33,4.16h0l-1.09,2h0l-.37.19a18.44,18.44,0,0,0-1.31,2.34h0c-.45.26-.63.77-.92,1.17a2.21,2.21,0,0,0-.75,1.15h0a.64.64,0,0,0-.42.34c-.93,1.53-1.87,3.06-2.79,4.6a1.64,1.64,0,0,0-.11.56h0a5.34,5.34,0,0,0,.34,5.72c.47.68.89,1.39,1.33,2.09h.38l.53.23,1,.93.34,0h0a2.05,2.05,0,0,0,.94.53h0a12.24,12.24,0,0,0,4.74,1.43c.33,0,.66.12,1,.18a.25.25,0,0,0,0,.19h.18c.81.52,1.72.27,2.58.36,2.22.23,4.47.11,6.71.12.24,0,.49-.06.71.1h0a1.06,1.06,0,0,0,.77.29c1.61-.09,3.24.22,4.84-.32a5.22,5.22,0,0,1,2,0,6.17,6.17,0,0,0,3.11-.54h0a7.75,7.75,0,0,0,3.25-.69c.69-.41,1.54-.61,1.93-1.46a1.15,1.15,0,0,1,0-.19,2.34,2.34,0,0,0,.57-2.36,12.13,12.13,0,0,1-.18-1.33c-.08-.31,0-.66-.39-.81a1.09,1.09,0,0,1,0-.18,4.37,4.37,0,0,0-1.09-2.36.55.55,0,0,1,0-.18c-.26-.63-.38-1.36-1.09-1.65a1.82,1.82,0,0,0-.21-.71h0c-.46-.7-.78-1.49-1.29-2.16l-.19-.19c-.17-.34-.19-.77-.55-1v-.19a3.29,3.29,0,0,0-.56-1.18,2.5,2.5,0,0,0-.55-1.75l-.16,0h0a21.75,21.75,0,0,1-.47-3.61c0-1.1.63-2.09.45-3.21v-3.49a12.64,12.64,0,0,0,1.64-3.76h0c.36-.89,1.28-1.12,1.86-1.76h0a1.5,1.5,0,0,0,.92-1.75,12.3,12.3,0,0,1,1.64-5.1c.61-.41.5-1.1.58-1.71s-.16-1.23.19-1.79a1.15,1.15,0,0,1,0-.19,13.39,13.39,0,0,1,.66-3.2,3.32,3.32,0,0,0,.25-1.71h0a46.21,46.21,0,0,1,1.48-5,.19.19,0,0,0,.19,0h0a6.72,6.72,0,0,0,.74-2.35c.35-.31.2-.8.37-1.18h0a14.94,14.94,0,0,0,1.11-3.53l0-.38a3.44,3.44,0,0,0,.85-2c.39-1.38,1.17-2.6,1.35-4.09a3.29,3.29,0,0,1,.75-1.79,1,1,0,0,0,.18-.73,2.81,2.81,0,0,0,0-.29c0-.18,0-.38.2-.5h0a7.83,7.83,0,0,0,1.11-2.94h0a29.25,29.25,0,0,0,1.29-3.12h0a17.23,17.23,0,0,0,.75-1.76l.19-.39c.35-1.31,1.56-1.88,2.22-2.92h0c1.14-.85,1.6-.65,1.8.82a4.29,4.29,0,0,0,.59,2.11,1.1,1.1,0,0,1,0,.18h0c-.15.55.19,1,.19,1.56l.13.05.08-.08h0l-.09.08a14.26,14.26,0,0,0,1,3.48,93.26,93.26,0,0,1,2.38,15.07,33.71,33.71,0,0,0,.74,5.49h0c-.06,1.69.45,3.33.41,5h0c-.26,1.8.34,3.53.37,5.3.12.06.13.13,0,.2a16.17,16.17,0,0,0,.38,5.59,3.41,3.41,0,0,0,.14.65l0,.39c.27.7-.13,1.51.37,2.16a.61.61,0,0,1,0,.19c.2.9,0,1.9.62,2.72.08.12.13.27.31.25a.29.29,0,0,1,0,.13h0c-.26.45-.31.88.17,1.21l0,.38a20.4,20.4,0,0,1,.5,6.23,4.3,4.3,0,0,1-1.1,2.31c-.16.2-.36.36-.33.66h0c-.12.26-.38.44-.38.77a12.37,12.37,0,0,0-2.25,2.92,7,7,0,0,0-1.45,2.16h0c-1,.93-1.34,2.29-1.83,3.54h-.19a12,12,0,0,0-.19,3.74.87.87,0,0,0,.37.74v.59l.51.23a.51.51,0,0,0,.07.17l.16.38h0c0,.49.32.6.7.62l.2.19h0a9,9,0,0,0,4.43,2.35h0a20.37,20.37,0,0,0,5.43,1.34c5.27,1,10.6.78,15.92.81,1.59,0,3.19.31,4.79.17h2.22c1.5.09,2.36-.84,3-2.1h0a4.56,4.56,0,0,0,.92-4.44,8.41,8.41,0,0,0-2.6-4.25l-3.15-4.47a49.1,49.1,0,0,1-5-11.34h0c-.05-.61-.1-1.22-.16-1.84a7.65,7.65,0,0,1,.5-4.09,8,8,0,0,0,.72-3.59c0-3,0-6,0-9h0a1,1,0,0,0,.16-.65l0-10.81a1.54,1.54,0,0,0-.18-.94h0a10.82,10.82,0,0,0-1.51-5.43c-.42-.91-.87-1.79-1.25-2.71a11.31,11.31,0,0,1-.11-7.16c.78-3.13,1.65-6.27,1.32-9.58-.22-2.23-.5-4.45-.68-6.68-.22-2.72-.36-5.44-.53-8.16-.21-3.57-.49-7.12-1-10.66-.33-.33,0-.86-.35-1.19h0c-.06-2.67-.12-5.33-.19-8h0a.33.33,0,0,0,0-.17h0a1.22,1.22,0,0,0,.13-.75c0-3.14,0-6.27,0-9.41a1.36,1.36,0,0,0-.14-.84,41,41,0,0,0-.81-6.63,20.56,20.56,0,0,1,.24-9.77,1.58,1.58,0,0,0,0-.38,16,16,0,0,1,1.07-2.95h.2a13.69,13.69,0,0,0,1.44-4.8,15,15,0,0,1,.83-3,2.74,2.74,0,0,1,2.67-2,3.77,3.77,0,0,0,2.86-1.52h0a1.64,1.64,0,0,1,1.66,0h0a14.39,14.39,0,0,0,3.17,2.33h0c.91.35,1.52,1.29,2.53,1.45h0s0,.09,0,.13c.26.42.75.5,1.1.8l3.15,1.16a23.21,23.21,0,0,1,5.19,1.17,17.21,17.21,0,0,0,2.57.42,9.52,9.52,0,0,1,2.4,2.38A18.13,18.13,0,0,0,279,188.9a2.85,2.85,0,0,0,2.52.61,1.8,1.8,0,0,0,1.48-1.29,38.24,38.24,0,0,0,1.08-4.62h0c.33-.86.68-1.71,1-2.58a1.5,1.5,0,0,1,1.78-1.14c2,.28,4.07.53,6.08,1h0c1.55.53,2.46,2,3.67,3h0c.54.94,1.46,1,2.37,1.17,1.09.15,2.19-.08,3.27.16a4.11,4.11,0,0,1,2.74,1.77c1.13,1.18,2.22,2.41,3.4,3.54.93.88,2,1.64,3,2.45a.18.18,0,0,0,.29-.1l.06,0h.06c.09.65.64.84,1.05,1.14a6.23,6.23,0,0,0,4.94,1.4h0a1.08,1.08,0,0,0,1.27-.83,14.37,14.37,0,0,0,.75-3.33h0l0-.35h0a4.53,4.53,0,0,0,.7-1.85h0c.77-.85,1.5,0,2.24.05h0l.58.38a9.71,9.71,0,0,1,2.34,2.6,2.89,2.89,0,0,0,.74,1.76h0a1.56,1.56,0,0,0,.41,1.14l.22.55h0a1,1,0,0,0,.15.81h0a1.34,1.34,0,0,0,0,.2,8.73,8.73,0,0,1,1.49,2.33h.37l.71,1.18h0c.32,1,.63,2,.95,2.93h0a2.56,2.56,0,0,0,.48,1.82c.75.9.67,2.1,1.16,3.09l0-.06h0l-.06.06c.12.7-.12,1.44.2,2.13h0a6.65,6.65,0,0,0,1.11,3.71h0c.67.55.6,1.45.91,2.17h0a9.55,9.55,0,0,1,1.14,4c0,.28-.07.59.18.81h0l.19.4a10.23,10.23,0,0,0,1.28,3.54c.58,1.94,1.29,3.86,1.73,5.82a13.38,13.38,0,0,0,1.59,4.14h0c1,1.87,1.12,4,1.34,6a19.49,19.49,0,0,1,2.37,4.55h0a11.73,11.73,0,0,1,.79,3.63c.08,1.27.91,2.28,1.42,3.4h0a16.78,16.78,0,0,0,1.68,4.68,9,9,0,0,1,.44,1.54c.63,1,.47,2.22.77,3.3.09.34.18.68.28,1h0a6,6,0,0,0,1.11,2.75h0a.42.42,0,0,0,.16.39h0c2.3,4.28,3.32,9.07,4.84,13.67h0a9.89,9.89,0,0,0,1.44,3.41,4.51,4.51,0,0,1,.54,1.61c.46,2.13.94,4.25,1.32,6.39a7.93,7.93,0,0,0,.93,2.29l.06,0v0h0l-.07,0a22.42,22.42,0,0,0,2.1,4.9,4.93,4.93,0,0,1,.53,1.33c-.05.64.47,1,.64,1.54a2.46,2.46,0,0,1,.29,1h0c.24.56.05,1.28.55,1.76h0c.21.51,0,1.18.55,1.57a1.09,1.09,0,0,1,0,.18,15.33,15.33,0,0,0,1.11,2.94h0l.17,0h0a8.8,8.8,0,0,0,2.25,4.27,16,16,0,0,1,2.76,3.75c0,.43.3.65.53.86a24.2,24.2,0,0,1,3.26,4.13,11.94,11.94,0,0,0,3.23,2.82h0c1.38,1.63,3.34,2.5,4.76,4.06,1.24,1.36,2.77,2.5,3.29,4.46a13,13,0,0,0,.69,2.61h0a2.13,2.13,0,0,1-.47,1.41c-1.45,1.79-.62,3.55,1.38,3.67h0a1.56,1.56,0,0,0,1.25.51c2,.11,4.08.54,6.13.1,1.31-.28,1.68-.71,1.69-2.17-.48-.75-.91-1.55-1.85-1.76h0a6.22,6.22,0,0,1-1.67-1.93.35.35,0,0,0,.11-.1c.13-1-.5-1.7-.79-2.53a16.64,16.64,0,0,0-1.72-3.26,5.9,5.9,0,0,0-1.3-2.35,2.51,2.51,0,0,0-.55-.78h0a16.53,16.53,0,0,0-2.23-3.12h0a9.2,9.2,0,0,0-2.59-2.35h0q-.57-.57-1.11-1.17h0a18.72,18.72,0,0,0-2.22-3.53c0-.33,0-.63-.37-.78-.2-.38-.19-.87-.56-1.17h0a21.19,21.19,0,0,0-1.48-3.12l-.18-.2c-.12-.48-.13-1-.56-1.37h0c-.17-.4,0-1-.55-1.17h0a2.35,2.35,0,0,0-.55-1.37,1.21,1.21,0,0,1,0-.19,3.66,3.66,0,0,0-.55-1.37h0c-.51-1.37-.95-2.76-1.49-4.11h0c-.52-.43-.4-1.13-.57-1.69-.78-2.48-1.48-5-2-7.52a1.68,1.68,0,0,0-.35-.78l-.06.06h0l.07-.05a3.14,3.14,0,0,0-.55-2.15l-.06,0h0l.07,0a19.89,19.89,0,0,0-.91-4.4q-.66-2.76-1.34-5.5c-.16-.61-.36-1.22-.54-1.83h0a23.45,23.45,0,0,0-1.14-4.47h0c-.37-2-.76-4.05-1.1-6.08-.21-1.24-.56-2.45-.81-3.68a25.19,25.19,0,0,0-1.77-6.09c-.46-1.85-.87-3.7-1.37-5.53-.55-2-.92-4.08-1.43-6.1-.62-2.49-.89-5.07-1.63-7.54h0c-.45-2.15-.79-4.32-1.28-6.45-.61-2.63-1.2-5.26-1.81-7.88a5.16,5.16,0,0,1-.1-.67h0c.19-1.36-.37-2.61-.45-3.93a22.13,22.13,0,0,0-1.72-6.57,3.9,3.9,0,0,1,0-2.09,10.42,10.42,0,0,0-.34-4.95,15.79,15.79,0,0,1-.79-6.67c.05-.54-.32-.91-.36-1.37-.11-1.45-.61-2.82-.74-4.25,0-.47-.49-.77-.39-1.27h-.19c0-.46,0-.92,0-1.37a.22.22,0,0,0,0-.16,1.23,1.23,0,0,0,0-1.23.25.25,0,0,0,0-.17,3.26,3.26,0,0,0-.71-1.58h0a15.13,15.13,0,0,0-.37-2.76l0-.35h0v-.4c-.19-2.28-.72-4.52-.55-6.83h0v-.79h0c-.43-2.52-.86-5-1.31-7.56a2.35,2.35,0,0,0-.34-.67.47.47,0,0,0,0-.17h0c0-.12-.09-.23-.13-.35-.63-1.74-.59-3.67-1.4-5.36-.42-.88-.26-2-.68-2.88h0c-.67-5.49-.8-11.06-2.26-16.42a7.29,7.29,0,0,0-1-2.37h0a1.9,1.9,0,0,0-.37-1,.12.12,0,0,0,0-.13c-.06-1-.84-1.74-.95-2.72l-2.38-5.72h0l-1.13-3.08h0a10.18,10.18,0,0,0-.83-2.44,7.25,7.25,0,0,1-.49-2.63,5.37,5.37,0,0,1-.27-2.86,9.56,9.56,0,0,0-.46-4.57h0c-.26-1.3-.95-2.41-1.33-3.66a2.48,2.48,0,0,1-.15-.64c-.65-1-.9-2.21-1.66-3.14h0l-.93-2.54h-.18a26,26,0,0,0-3.49-5.69h0l-2-2.33a17.42,17.42,0,0,0-3.89-3.13h0a18.28,18.28,0,0,0-6.23-2.57c-1.45-.31-2.9-.59-4.34-.89a9.21,9.21,0,0,0-1.29-.06l-4.68-.75c-1-.16-2.05-.28-3.08-.42a34.39,34.39,0,0,1-7.39-2.9c-3.68-2-7.46-3.82-11.3-5.48a37.56,37.56,0,0,0-5-1.55,6.48,6.48,0,0,0-2.4-.6h0c-1.79-.5-3.53-1.22-5.36-1.58a27.17,27.17,0,0,0-3.1-1.09c-1.29-.29-2.45-.92-3.69-1.32-.44-.14-.89-.24-1.33-.36-.32-.64-.91-.7-1.49-.78l0,0h0l0,0a3.49,3.49,0,0,0-1.5-.75h0l-.2-.19h0c-.11-.24-.36-.27-.55-.39-.25-.59-1.05-.37-1.29-1-1.18-.61-2.08-1.69-3.34-2.15h0c-1.49-1.43-3.31-2.37-4.9-3.66-.17-.14-.37-.22-.46-.44-1.09-.24-1.85-1.11-2.79-1.63-2.51-1.4-5-2.71-7.91-2.91-.08,0-.15-.1-.23-.16-3.06-.22-6.12-.41-9.17-.72a35.15,35.15,0,0,0-5.62-.26.15.15,0,0,0-.16,0,15.62,15.62,0,0,0-3.47-.31c-2.8-.09-5.61-.15-8.4-.3a112.31,112.31,0,0,0-11.89-.06,57.93,57.93,0,0,1-11.18-.68,9.84,9.84,0,0,1-4-1.34c-1,0-1.87-.86-2.93-.81l0,.08v0l0-.05c-.5-.6-1.19-.54-1.85-.59a61,61,0,0,0-6.32-2.15l-3.7-1.34a12.87,12.87,0,0,0-2.6-1.17l-.55-.19a10.62,10.62,0,0,0-2.6-1h0a11,11,0,0,1-2.37-1c-.35-.27-.79,0-1.14-.23a9.59,9.59,0,0,0-3-1.17h-.18c-.45-.53-1.12-.36-1.67-.58h0A6.28,6.28,0,0,0,152,45.42h0c-.4-.46-1-.44-1.47-.59h0c-.17-.28-.48-.28-.74-.38h-.18a12.68,12.68,0,0,0-3.71-2l-.55-.39h-.92a12.66,12.66,0,0,0-2.9-1.55c-1.34-.7-2.72-1.3-4.1-1.91a1.65,1.65,0,0,0-1-.26,59.2,59.2,0,0,0-5.58-2.19,2.68,2.68,0,0,0-1.08-.16.22.22,0,0,0-.14,0h0a12.51,12.51,0,0,0-3.75-1.14A26.85,26.85,0,0,0,120,33.52a41.78,41.78,0,0,0-7.74-.42,39,39,0,0,0-8.11,1.24A70.25,70.25,0,0,0,96,36.89a3.4,3.4,0,0,0-.48.29h0a47.24,47.24,0,0,0-7.09,2.71L83.35,42.1h0a1.69,1.69,0,0,0-1.12.19l-.18.19c-.3.15-.67.12-.93.39a.38.38,0,0,1-.37.2c-.58.61-1.53.63-2,1.37h0c-.28.41-.9.27-1.13.77a31,31,0,0,0-3.68,2h0a1.78,1.78,0,0,0-1.3.79,47.85,47.85,0,0,0-7.79,5.84c-1.26.54-2,1.81-3,2.59-.21.14-.38.34-.64.37-.64,1-1.71,1.52-2.43,2.43-.24.3-.49.57-.74.86h0c-.37.39-.93.57-1.13,1.15h0a5.11,5.11,0,0,0-1.65,1.59,18.8,18.8,0,0,0-2.68,2.6c-1.91,2-3.8,4.11-5.53,6.34a40.49,40.49,0,0,0-2.92,4.59L43,78.23l0,.07c-.94,1.44-1.69,3-2.51,4.5q-1.35,2.48-2.68,5a2.15,2.15,0,0,0-.14.45h0c-.19.39-.37.78-.55,1.17s-.61,1.06-.91,1.59c-.63,1.16-1.25,2.33-1.87,3.5h0c-.29.18-.07.61-.35.79a8.68,8.68,0,0,0-1.3,2.93h0l0,.17h0l-.34.22c-.45.31-.34.88-.53,1.31-.41,1-.67,2-1.13,2.93s0,2-.69,2.82c-.15.15-.33.33-.08.56h0l-.18.38h0a.5.5,0,0,0-.11.68c.37.5,0,.77-.25,1.08h0a1.36,1.36,0,0,0-.56.58h0l-.18,0c-.23.11-.5.29-.5.54,0,1.53-.67,2.9-.8,4.4,0,.54.28,1,.24,1.56a12.09,12.09,0,0,1-.61,2.49,1.24,1.24,0,0,0-.74,1.2c0,.78-.61,1.46-.42,2.23a5.92,5.92,0,0,1-.29,3c-.28,1.15-.06,2.34-.44,3.46a10.83,10.83,0,0,0-.08,1.83c-.3,2-.32,4-.43,6.08-.08,1.37-.09,2.75-.2,4.12C24.21,140.59,24.42,141.26,24.38,142ZM249.55,309.88l.1-.05-.09.06ZM99.4,312.25l.07-.07-.07.08Z" transform="translate(-24.26 -22.82)"/></svg>